<?xml version="1.0" encoding="UTF-8" standalone="no"?>
<svg
   version="1.1"
   id="svg610"
   xml:space="preserve"
   width="506.41907mm"
   height="157.30022mm"
   viewBox="0 0 506.41907 157.30022"
   sodipodi:docname="duncan_no_obs.svg"
   inkscape:version="1.3-dev (0a5c3d3503, 2022-05-07)"
   inkscape:export-filename="duncan_incomplete.svg"
   inkscape:export-xdpi="96"
   inkscape:export-ydpi="96"
   xmlns:inkscape="http://www.inkscape.org/namespaces/inkscape"
   xmlns:sodipodi="http://sodipodi.sourceforge.net/DTD/sodipodi-0.dtd"
   xmlns="http://www.w3.org/2000/svg"
   xmlns:svg="http://www.w3.org/2000/svg"
   xmlns:rdf="http://www.w3.org/1999/02/22-rdf-syntax-ns#"
   xmlns:cc="http://creativecommons.org/ns#"
   xmlns:dc="http://purl.org/dc/elements/1.1/"><metadata
     id="metadata7456"><rdf:RDF><cc:Work
         rdf:about=""><dc:format>image/svg+xml</dc:format><dc:type
           rdf:resource="http://purl.org/dc/dcmitype/StillImage" /></cc:Work></rdf:RDF></metadata><defs
     id="defs614" /><sodipodi:namedview
     id="namedview612"
     pagecolor="#505050"
     bordercolor="#eeeeee"
     borderopacity="1"
     inkscape:pageshadow="0"
     inkscape:pageopacity="0"
     inkscape:pagecheckerboard="0"
     showgrid="false"
     inkscape:zoom="1.1614093"
     inkscape:cx="1314.3515"
     inkscape:cy="282.41551"
     inkscape:window-width="1512"
     inkscape:window-height="916"
     inkscape:window-x="0"
     inkscape:window-y="38"
     inkscape:window-maximized="1"
     inkscape:current-layer="g616"
     inkscape:document-rotation="0"
     inkscape:showpageshadow="0"
     inkscape:deskcolor="#505050"
     showguides="false"
     inkscape:document-units="mm" /><g
     id="g616"
     inkscape:groupmode="layer"
     inkscape:label="DUN_03"
     transform="matrix(0,-0.02,-0.02,0,920.72126,368.40304)"><g
       inkscape:groupmode="layer"
       id="g90"
       inkscape:label="Simplify copy"><path
         id="rect27"
         style="fill:#ffffff;stroke-width:7.54379"
         transform="matrix(0,-1,-1,0,0,0)"
         d="m -46034.938,-14688.499 h 21518.975 v 52.917 h -21518.975 z" /><path
         id="rect28"
         style="fill:#f9f9f9;stroke-width:8.68943"
         transform="matrix(0,-1,-1,0,0,0)"
         d="m -46009.604,-14687.038 c 14.658,0 26.458,68.723 26.458,154.089 v 3823.72 c 0,85.365 -11.8,154.088 -26.458,154.088 -14.658,0 -26.459,-68.723 -26.459,-154.088 v -3823.72 c 0,-85.366 11.801,-154.089 26.459,-154.089 z" /><path
         id="rect29"
         style="fill:#ffffff;stroke-width:13.2292"
         transform="matrix(0,-1,-1,0,0,0)"
         d="m -44979.588,-14683.542 h 10.631 c 11.714,0 21.143,9.43 21.143,21.143 v 1364.455 c 0,11.713 -9.429,21.143 -21.143,21.143 h -10.631 c -11.713,0 -21.142,-9.43 -21.142,-21.143 v -1364.455 c 0,-11.713 9.429,-21.143 21.142,-21.143 z" /><path
         id="rect30"
         style="fill:#ffffff;stroke-width:9.29064"
         transform="matrix(0.69612546,-0.71792015,-0.71177475,-0.70240779,0,0)"
         d="m -22673.163,-40871.02 h 19.949 c 7.553,0 13.634,6.081 13.634,13.634 v 442.841 c 0,7.553 -6.081,13.634 -13.634,13.634 h -19.949 c -7.553,0 -13.634,-6.081 -13.634,-13.634 v -442.841 c 0,-7.553 6.081,-13.634 13.634,-13.634 z" /><path
         id="rect31"
         style="fill:#ffffff;stroke-width:13.2292"
         transform="matrix(0,-1,-1,0,0,0)"
         d="m -46023.039,-12732.899 h 931.184 v 52.916 h -931.184 z" /><path
         id="rect32"
         style="fill:#ffffff;stroke-width:13.1024"
         transform="matrix(0,-1,-1,0,0,0)"
         d="m -44027.697,-14680.694 h 26.17 c 7.409,0 13.373,5.964 13.373,13.373 v 1730.256 c 0,7.408 -5.964,13.373 -13.373,13.373 h -26.17 c -7.409,0 -13.373,-5.965 -13.373,-13.373 v -1730.256 c 0,-7.409 5.964,-13.373 13.373,-13.373 z" /><path
         id="rect33"
         style="fill:#ffffff;stroke-width:13.2292"
         transform="matrix(0,-1,-1,0,0,0)"
         d="m -44369.156,-12966.406 h 929.545 c 7.553,0 13.634,6.08 13.634,13.633 v 25.65 c 0,7.553 -6.081,13.633 -13.634,13.633 h -929.545 c -7.553,0 -13.633,-6.08 -13.633,-13.633 v -25.65 c 0,-7.553 6.08,-13.633 13.633,-13.633 z" /><path
         id="rect34"
         style="fill:#ffffff;stroke-width:13.1024"
         transform="matrix(0,-1,-1,0,0,0)"
         d="m -42162.482,-14687.219 h 26.17 c 7.409,0 13.373,5.965 13.373,13.374 v 1730.255 c 0,7.409 -5.964,13.373 -13.373,13.373 h -26.17 c -7.409,0 -13.373,-5.964 -13.373,-13.373 v -1730.255 c 0,-7.409 5.964,-13.374 13.373,-13.374 z" /><path
         id="rect35"
         style="fill:#ffffff;stroke-width:13.1024"
         transform="matrix(0,-1,-1,0,0,0)"
         d="m -43080.26,-14664.203 h 26.171 c 7.408,0 13.373,5.964 13.373,13.373 v 1730.256 c 0,7.409 -5.965,13.373 -13.373,13.373 h -26.171 c -7.408,0 -13.373,-5.964 -13.373,-13.373 v -1730.256 c 0,-7.409 5.965,-13.373 13.373,-13.373 z" /><path
         id="rect36"
         style="fill:#ffffff;stroke-width:13.2292"
         transform="matrix(0,-1,-1,0,0,0)"
         d="m -42592.218,-12972.931 h 929.545 c 7.553,0 13.633,6.081 13.633,13.634 v 25.65 c 0,7.553 -6.08,13.633 -13.633,13.633 h -929.545 c -7.553,0 -13.634,-6.08 -13.634,-13.633 v -25.65 c 0,-7.553 6.081,-13.634 13.634,-13.634 z" /><path
         id="rect37"
         style="fill:#ffffff;stroke-width:13.1024"
         transform="matrix(0,-1,-1,0,0,0)"
         d="m -40266.904,-14689.948 h 26.17 c 7.409,0 13.373,5.964 13.373,13.373 v 1730.256 c 0,7.408 -5.964,13.373 -13.373,13.373 h -26.17 c -7.409,0 -13.373,-5.965 -13.373,-13.373 v -1730.256 c 0,-7.409 5.964,-13.373 13.373,-13.373 z" /><path
         id="rect38"
         style="fill:#ffffff;stroke-width:13.1024"
         transform="matrix(0,-1,-1,0,0,0)"
         d="m -39315.029,-14652.198 h 26.17 c 7.409,0 13.373,5.964 13.373,13.373 v 1730.256 c 0,7.408 -5.964,13.373 -13.373,13.373 h -26.17 c -7.409,0 -13.373,-5.965 -13.373,-13.373 v -1730.256 c 0,-7.409 5.964,-13.373 13.373,-13.373 z" /><path
         id="rect39"
         style="fill:#ffffff;stroke-width:13.1024"
         transform="matrix(0,-1,-1,0,0,0)"
         d="m -41220.928,-14666.933 h 26.171 c 7.408,0 13.373,5.965 13.373,13.374 v 1730.255 c 0,7.409 -5.965,13.374 -13.373,13.374 h -26.171 c -7.408,0 -13.373,-5.965 -13.373,-13.374 v -1730.255 c 0,-7.409 5.965,-13.374 13.373,-13.374 z" /><path
         id="rect40"
         style="fill:#ffffff;stroke-width:13.2292"
         transform="matrix(0,-1,-1,0,0,0)"
         d="m -40732.886,-12975.66 h 929.545 c 7.553,0 13.633,6.08 13.633,13.633 v 25.65 c 0,7.553 -6.08,13.634 -13.633,13.634 h -929.545 c -7.553,0 -13.634,-6.081 -13.634,-13.634 v -25.65 c 0,-7.553 6.081,-13.633 13.634,-13.633 z" /><path
         id="rect41"
         style="fill:#ffffff;stroke-width:13.2292"
         transform="matrix(0,-1,-1,0,0,0)"
         d="m -39292.599,-12948.123 h 146.422 c 7.409,0 13.374,5.964 13.374,13.373 v 26.17 c 0,7.409 -5.965,13.374 -13.374,13.374 h -146.422 c -7.409,0 -13.374,-5.965 -13.374,-13.374 v -26.17 c 0,-7.409 5.965,-13.373 13.374,-13.373 z" /><path
         id="rect42"
         style="fill:#ffffff;stroke-width:12.6405"
         transform="matrix(0.69054206,-0.72329224,-0.72198217,-0.69191166,0,0)"
         d="m -19335.832,-36407.094 h 780.616 v 55.072 h -780.616 z" /><path
         id="rect43"
         style="fill:#ffffff;stroke-width:12.6405"
         transform="matrix(-0.69054206,-0.72329224,0.72198217,-0.69191166,0,0)"
         d="m -35411.316,-15229.193 h 780.616 v 55.072 h -780.616 z" /><path
         id="rect44"
         style="fill:#ffffff;stroke-width:13.2292"
         transform="matrix(0,-1,-1,0,0,0)"
         d="m -35586.863,-12972.568 h 173.169 v 52.916 h -173.169 z" /><path
         id="rect45"
         style="fill:#ffffff;stroke-width:13.2292"
         transform="matrix(0,-1,-1,0,0,0)"
         d="m -34886.129,-13053.111 h 682.609 v 52.916 h -682.609 z" /><path
         id="rect46"
         style="fill:#ffffff;stroke-width:13.2292"
         transform="matrix(0,-1,-1,0,0,0)"
         d="m -22922.871,-15184.729 h 52.917 v 1739.917 h -52.917 z" /><path
         id="rect47"
         style="fill:#ffffff;stroke-width:13.2292"
         transform="matrix(0,-1,-1,0,0,0)"
         d="m -23002.607,-13444.812 h 133.839 v 52.917 h -133.839 z" /><path
         id="rect48"
         style="fill:#ffffff;stroke-width:13.2292"
         transform="matrix(0,-1,-1,0,0,0)"
         d="m -24540.338,-14609.503 h 914.097 v 52.917 h -914.097 z" /><path
         id="rect49"
         style="fill:#ffffff;stroke-width:13.2292"
         transform="matrix(0,-1,-1,0,0,0)"
         d="m -23680.348,-14603.808 h 52.917 v 1213.101 h -52.917 z" /><path
         id="rect50"
         style="fill:#ffffff;stroke-width:13.2292"
         transform="matrix(0,-1,-1,0,0,0)"
         d="m -23745.844,-13450.509 h 119.602 v 58.612 h -119.602 z" /><path
         id="rect51"
         style="fill:#ffffff;stroke-width:13.2292"
         transform="matrix(0,-1,-1,0,0,0)"
         d="m -23774.32,-13450.508 h 52.916 v 538.207 h -52.916 z" /><path
         id="rect52"
         style="fill:#ffffff;stroke-width:13.2291"
         transform="matrix(0,-1,-1,0,0,0)"
         d="m -24449.215,-14948.373 h 52.917 v 361.652 h -52.917 z" /><path
         id="rect53"
         style="fill:#ffffff;stroke-width:13.2292"
         transform="matrix(0,-1,-1,0,0,0)"
         d="m -24585.9,-14948.373 h 187.945 v 52.917 h -187.945 z" /><path
         id="rect54"
         style="fill:#ffffff;stroke-width:13.2292"
         transform="matrix(0,-1,-1,0,0,0)"
         d="m -24586.594,-18420.152 h 52.917 v 3525.395 h -52.917 z" /><path
         id="rect55"
         style="fill:#ffffff;stroke-width:13.2292"
         transform="matrix(0,-1,-1,0,0,0)"
         d="m -20768.027,-18374.102 h 52.916 v 4909.355 h -52.916 z" /><path
         id="rect56"
         style="fill:#ffffff;stroke-width:13.2292"
         transform="matrix(0,-0.99999994,-0.99999994,0,-8.4219257e-5,-3.5721962e-4)"
         d="m -38613.293,-13469.926 h 2003.527 v 52.917 h -2003.527 z" /><path
         id="rect57"
         style="fill:#ffffff;stroke-width:13.2292"
         transform="matrix(0,-0.99999994,-0.99999994,0,-8.4219257e-5,-3.5721962e-4)"
         d="m -36418.477,-13471.939 h 330.23 v 52.916 h -330.23 z" /><path
         id="rect58"
         style="fill:#ffffff;stroke-width:13.2292"
         transform="matrix(0,-0.99999994,-0.99999994,0,-8.4219257e-5,-3.5721962e-4)"
         d="m -36140.602,-14670.028 h 52.917 v 1246.415 h -52.917 z" /><path
         id="rect59"
         style="fill:#ffffff;stroke-width:13.2292"
         transform="matrix(0,-0.99999994,-0.99999994,0,-8.4219257e-5,-3.5721962e-4)"
         d="m -34588.398,-14662.699 h 52.916 v 1653.162 h -52.916 z" /><path
         id="rect60"
         style="fill:#ffffff;stroke-width:13.2292"
         transform="matrix(0,-0.99999994,-0.99999994,0,-8.4219257e-5,-3.5721962e-4)"
         d="m -33642.008,-14662.98 h 52.917 v 1653.161 h -52.917 z" /><path
         id="rect61"
         style="fill:#ffffff;stroke-width:13.2292"
         transform="matrix(0,-0.99999994,-0.99999994,0,-8.4219257e-5,-3.5721962e-4)"
         d="m -32990.105,-12962.869 h 682.608 v 52.917 h -682.608 z" /><path
         id="rect62"
         style="fill:#ffffff;stroke-width:13.2292"
         transform="matrix(0,-0.99999994,-0.99999994,0,-8.4219257e-5,-3.5721962e-4)"
         d="m -32696.396,-14677.164 h 52.916 v 1745.787 h -52.916 z" /><path
         id="rect63"
         style="fill:#ffffff;stroke-width:13.2292"
         transform="matrix(0,-0.99999994,-0.99999994,0,-8.4219257e-5,-3.5721962e-4)"
         d="m -27295.883,-12973.493 h 682.609 v 52.917 h -682.609 z" /><path
         id="rect64"
         style="fill:#ffffff;stroke-width:13.2292"
         transform="matrix(0,-0.99999994,-0.99999994,0,-8.4219257e-5,-3.5721962e-4)"
         d="m -25419.213,-12972.158 h 1149.763 v 52.916 h -1149.763 z" /><path
         id="rect65"
         style="fill:#ffffff;stroke-width:13.2292"
         transform="matrix(0,-0.99999994,-0.99999994,0,-8.4219257e-5,-3.5721962e-4)"
         d="m -27002.174,-14687.788 h 52.917 v 1745.787 h -52.917 z" /><path
         id="rect66"
         style="fill:#ffffff;stroke-width:13.2292"
         transform="matrix(0,-0.99999994,-0.99999994,0,-8.4219257e-5,-3.5721962e-4)"
         d="m -31711.395,-14673.418 h 52.917 v 1653.162 h -52.917 z" /><path
         id="rect67"
         style="fill:#ffffff;stroke-width:13.2292"
         transform="matrix(0,-0.99999994,-0.99999994,0,-8.4219257e-5,-3.5721962e-4)"
         d="m -31180.428,-13009.737 h 682.609 v 52.916 h -682.609 z" /><path
         id="rect68"
         style="fill:#ffffff;stroke-width:13.2292"
         transform="matrix(0,-0.99999994,-0.99999994,0,-8.4219257e-5,-3.5721962e-4)"
         d="m -30798.119,-14679.734 h 52.917 v 1685.379 h -52.917 z" /><path
         id="rect69"
         style="fill:#ffffff;stroke-width:13.2292"
         transform="matrix(0,-0.99999994,-0.99999994,0,-8.4219257e-5,-3.5721962e-4)"
         d="m -29813.117,-14675.987 h 52.916 v 1737.732 h -52.916 z" /><path
         id="rect70"
         style="fill:#ffffff;stroke-width:13.2292"
         transform="matrix(0,-0.99999994,-0.99999994,0,-8.4219257e-5,-3.5721962e-4)"
         d="m -26022.564,-14664.994 h 52.916 v 1737.733 h -52.916 z" /><path
         id="rect71"
         style="fill:#ffffff;stroke-width:13.2292"
         transform="matrix(0,-0.99999994,-0.99999994,0,-8.4219257e-5,-3.5721962e-4)"
         d="m -24564.721,-14691.517 h 52.917 v 1737.733 h -52.917 z" /><path
         id="rect72"
         style="fill:#ffffff;stroke-width:13.2292"
         transform="matrix(0,-0.99999994,-0.99999994,0,-8.4219257e-5,-3.5721962e-4)"
         d="m -29158.779,-12957.384 h 682.609 v 52.917 h -682.609 z" /><path
         id="rect73"
         style="fill:#ffffff;stroke-width:13.2292"
         transform="matrix(0,-0.99999994,-0.99999994,0,-8.4219257e-5,-3.5721962e-4)"
         d="m -28865.07,-14671.679 h 52.916 v 1745.787 h -52.916 z" /><path
         id="rect74"
         style="fill:#ffffff;stroke-width:13.2292"
         transform="matrix(0,-0.99999994,-0.99999994,0,-8.4219257e-5,-3.5721962e-4)"
         d="m -27932.986,-14641.475 h 52.916 v 1653.162 h -52.916 z" /><path
         id="rect75"
         style="fill:#ffffff;stroke-width:13.2292"
         transform="matrix(0.99999994,0,0,-0.99999994,-8.4219257e-5,-3.5721962e-4)"
         d="m 16178.788,-22944.934 h 682.609 v 52.917 h -682.609 z" /><path
         id="rect76"
         style="fill:#ffffff;stroke-width:13.2292"
         transform="matrix(0.99999994,0,0,-0.99999994,-8.4219257e-5,-3.5721962e-4)"
         d="m 17551.543,-22675.955 h 859.163 v 52.917 h -859.163 z" /><path
         id="rect77"
         style="fill:#ffffff;stroke-width:13.2292"
         transform="matrix(0.99999994,0,0,-0.99999994,-8.4219257e-5,-3.5721962e-4)"
         d="m 16475.346,-24568.105 h 52.916 v 1663.205 h -52.916 z" /><path
         id="rect78"
         style="fill:#ffffff;stroke-width:13.2292"
         transform="matrix(0.99999994,0,0,-0.99999994,-8.4219257e-5,-3.5721962e-4)"
         d="m 18361.881,-24591.686 h 52.917 v 3872.985 h -52.917 z" /><path
         id="rect79"
         style="fill:#ffffff;stroke-width:13.2292"
         transform="matrix(0.99999994,0,0,-0.99999994,-8.4219257e-5,-3.5721962e-4)"
         d="m 15504.665,-24547.42 h 52.917 v 1653.162 h -52.917 z" /><path
         id="rect80"
         style="fill:#ffffff;stroke-width:13.2292"
         transform="translate(-8.4219257e-5,-3.5721962e-4)"
         d="m 15642.982,22351.326 h 1223.663 v 52.917 h -1223.663 z" /><path
         id="rect81"
         style="fill:#ffffff;stroke-width:13.2292"
         transform="translate(-8.4219257e-5,-3.5721962e-4)"
         d="m 13949.261,22389.531 h 1223.663 v 52.917 h -1223.663 z" /><path
         id="rect82"
         style="fill:#ffffff;stroke-width:13.2292"
         transform="translate(-8.4219257e-5,-3.5721962e-4)"
         d="m 16480.594,20728.154 h 52.916 v 1663.205 h -52.916 z" /><path
         id="rect83"
         style="fill:#ffffff;stroke-width:13.2292"
         transform="translate(-8.4219257e-5,-3.5721962e-4)"
         d="m 17393.68,20724.395 h 52.916 v 1355.658 h -52.916 z" /><path
         id="rect84"
         style="fill:#ffffff;stroke-width:13.2292"
         transform="translate(-8.4219257e-5,-3.5721962e-4)"
         d="m 17427.852,23213.246 h 52.916 v 1355.659 h -52.916 z" /><path
         id="rect85"
         style="fill:#ffffff;stroke-width:13.2292"
         transform="translate(-8.4219257e-5,-3.5721962e-4)"
         d="m 14563.111,20724.395 h 52.917 V 22387.6 h -52.917 z" /><path
         id="rect86"
         style="fill:#ffffff;stroke-width:13.2292"
         transform="translate(-8.4219257e-5,-3.5721962e-4)"
         d="m 13454.544,20724.395 h 52.917 V 22387.6 h -52.917 z" /><path
         id="rect87"
         style="fill:#ffffff;stroke-width:13.2292"
         transform="matrix(0,-0.99999994,-0.99999994,0,-8.4219257e-5,-3.5721962e-4)"
         d="m -23774.32,-12960.712 h 327.48 v 52.917 h -327.48 z" /><path
         id="rect88"
         style="fill:#ffffff;stroke-width:13.2292"
         transform="matrix(-0.69751109,-0.71657406,-0.71657406,0.69751109,-8.4219257e-5,-3.5721962e-4)"
         d="m -25863.32,6409.0635 h 52.916 v 694.8275 h -52.916 z" /><path
         id="rect89"
         style="fill:#ffffff;stroke-width:13.2292"
         transform="matrix(-0.71776614,-0.69628435,-0.69628435,0.71776614,-8.4219257e-5,-3.5721962e-4)"
         d="m -28716.639,4490.7773 h 330 v 52.9 h -330 z" /><path
         id="rect90"
         style="fill:#ffffff;stroke-width:13.2292"
         transform="rotate(135.87035,3.0288594e-5,-1.9567864e-4)"
         d="m 2850.5576,-27990.164 h 330 v 52.9 h -330 z" /></g></g></svg>
