<?xml version="1.0" encoding="UTF-8" standalone="no"?>
<!-- Created with Inkscape (http://www.inkscape.org/) -->

<svg
   width="124.48051mm"
   height="81.300697mm"
   viewBox="0 0 124.48051 81.300697"
   version="1.1"
   id="svg8"
   inkscape:version="1.3-dev (0a5c3d3503, 2022-05-07)"
   sodipodi:docname="narrow_passage.svg"
   inkscape:export-filename="narrow_passage.svg"
   inkscape:export-xdpi="96"
   inkscape:export-ydpi="96"
   xml:space="preserve"
   xmlns:inkscape="http://www.inkscape.org/namespaces/inkscape"
   xmlns:sodipodi="http://sodipodi.sourceforge.net/DTD/sodipodi-0.dtd"
   xmlns="http://www.w3.org/2000/svg"
   xmlns:svg="http://www.w3.org/2000/svg"
   xmlns:rdf="http://www.w3.org/1999/02/22-rdf-syntax-ns#"
   xmlns:cc="http://creativecommons.org/ns#"
   xmlns:dc="http://purl.org/dc/elements/1.1/"><sodipodi:namedview
     id="base"
     pagecolor="#ffffff"
     bordercolor="#666666"
     borderopacity="1.0"
     inkscape:pageopacity="0.0"
     inkscape:pageshadow="2"
     inkscape:zoom="1.4142136"
     inkscape:cx="216.37468"
     inkscape:cy="153.44217"
     inkscape:document-units="mm"
     inkscape:current-layer="layer1"
     showgrid="true"
     inkscape:window-width="1512"
     inkscape:window-height="916"
     inkscape:window-x="0"
     inkscape:window-y="38"
     inkscape:window-maximized="1"
     fit-margin-top="0"
     fit-margin-left="0"
     fit-margin-right="0"
     fit-margin-bottom="0"
     inkscape:snap-nodes="false"
     inkscape:snap-global="false"
     inkscape:showpageshadow="0"
     inkscape:pagecheckerboard="0"
     inkscape:deskcolor="#d1d1d1"><inkscape:grid
       type="xygrid"
       id="grid2" /></sodipodi:namedview><defs
     id="defs2" /><metadata
     id="metadata5"><rdf:RDF><cc:Work
         rdf:about=""><dc:format>image/svg+xml</dc:format><dc:type
           rdf:resource="http://purl.org/dc/dcmitype/StillImage" /><dc:title /></cc:Work></rdf:RDF></metadata><g
     transform="translate(-655.71622,-576.47863)"
     inkscape:label="Layer 1"
     inkscape:groupmode="layer"
     id="layer1"><path
       inkscape:connector-curvature="0"
       style="fill:#c7c7c7;fill-opacity:1;stroke:#000000;stroke-width:0.0663022;stroke-miterlimit:4;stroke-dasharray:none;stroke-dashoffset:0;stroke-opacity:1;paint-order:markers stroke fill"
       d="m 659.82514,576.9528 -0.0643,38.9239 -0.0707,0.32227 -0.18937,0.26266 -0.28005,0.17684 -0.34276,0.0648 -2.23487,7.3e-4 -0.34201,-0.0646 -0.27796,-0.17667 -0.18624,-0.26254 -0.0669,-0.32222 0.0643,-38.92471 0.0707,-0.0624 0.18936,-0.0968 0.28006,-0.0652 0.34277,-0.10452 2.23486,-7.7e-4 0.342,0.10494 0.27796,0.0652 0.18625,0.0968 0.0669,0.0624 v 0"
       id="path1942"
       sodipodi:nodetypes="cccccccccccccccccccccc" /><path
       sodipodi:nodetypes="cccccccccccccccccccccc"
       id="path1944"
       d="m 659.80454,617.99499 -0.0643,38.9239 -0.0707,0.32226 -0.18936,0.26266 -0.28006,0.17685 -0.34277,0.0648 -2.23486,7.2e-4 -0.342,-0.0646 -0.27796,-0.17666 -0.18625,-0.26254 -0.0669,-0.32223 0.0643,-38.92469 0.0707,-0.0624 0.18936,-0.0968 0.28006,-0.0652 0.34276,-0.10453 2.23487,-7.6e-4 0.34201,0.10495 0.27796,0.0652 0.18624,0.0968 0.0669,0.0624 v 0"
       style="fill:#c7c7c7;fill-opacity:1;stroke:#000000;stroke-width:0.0663022;stroke-miterlimit:4;stroke-dasharray:none;stroke-dashoffset:0;stroke-opacity:1;paint-order:markers stroke fill"
       inkscape:connector-curvature="0" /><path
       inkscape:connector-curvature="0"
       style="fill:#c7c7c7;fill-opacity:1;stroke:#000000;stroke-width:0.06245324;stroke-miterlimit:4;stroke-dasharray:none;stroke-dashoffset:0;stroke-opacity:1;paint-order:markers stroke fill"
       d="m 660.50793,576.50986 34.50367,0.0643 0.28567,0.0707 0.23283,0.18954 0.15676,0.28031 0.0575,0.34309 7.5e-4,2.23695 -0.0573,0.34233 -0.15672,0.27822 -0.23273,0.18642 -0.28563,0.0669 -34.50437,-0.0643 -0.0553,-0.0707 -0.0858,-0.18953 -0.0578,-0.28032 -0.0927,-0.34309 -6.9e-4,-2.23695 0.093,-0.34232 0.0578,-0.27822 0.0858,-0.18642 0.0553,-0.0669 v 0"
       id="path1942-3"
       sodipodi:nodetypes="cccccccccccccccccccccc" /><path
       inkscape:connector-curvature="0"
       style="fill:#c7c7c7;fill-opacity:1;stroke:#000000;stroke-width:0.0666003;stroke-miterlimit:4;stroke-dasharray:none;stroke-dashoffset:0;stroke-opacity:1;paint-order:markers stroke fill"
       d="m 696.62732,576.64027 39.27835,0.0642 0.32521,0.0706 0.26504,0.18934 0.17846,0.28003 0.0654,0.34274 8.5e-4,2.23465 -0.0652,0.34199 -0.17841,0.27793 -0.26493,0.18622 -0.32516,0.0668 -39.27917,-0.0642 -0.063,-0.0706 -0.0977,-0.18933 -0.0657,-0.28004 -0.10543,-0.34274 -7.8e-4,-2.23465 0.10588,-0.34198 0.0657,-0.27793 0.0977,-0.18624 0.063,-0.0668 v 0"
       id="path1942-3-6"
       sodipodi:nodetypes="cccccccccccccccccccccc" /><path
       inkscape:connector-curvature="0"
       style="fill:#c7c7c7;fill-opacity:1;stroke:#000000;stroke-width:0.06244291;stroke-miterlimit:4;stroke-dasharray:none;stroke-dashoffset:0;stroke-opacity:1;paint-order:markers stroke fill"
       d="m 660.84191,653.28035 34.4922,0.0643 0.28558,0.0707 0.23275,0.18955 0.15671,0.28031 0.0575,0.34309 7.5e-4,2.23695 -0.0573,0.34233 -0.15667,0.27822 -0.23265,0.18642 -0.28553,0.0669 -34.49292,-0.0643 -0.0553,-0.0707 -0.0858,-0.18954 -0.0577,-0.28032 -0.0926,-0.34309 -6.9e-4,-2.23695 0.093,-0.34232 0.0577,-0.27822 0.0858,-0.18643 0.0553,-0.0669 v 0"
       id="path1942-3-7"
       sodipodi:nodetypes="cccccccccccccccccccccc" /><path
       inkscape:connector-curvature="0"
       style="fill:#c7c7c7;fill-opacity:1;stroke:#000000;stroke-width:0.0662822;stroke-miterlimit:4;stroke-dasharray:none;stroke-dashoffset:0;stroke-opacity:1;paint-order:markers stroke fill"
       d="m 696.94608,653.4106 38.90093,0.0642 0.32209,0.0706 0.2625,0.18937 0.17674,0.28005 0.0648,0.34276 8.4e-4,2.23484 -0.0646,0.342 -0.1767,0.27796 -0.26238,0.18624 -0.32203,0.0668 -38.90174,-0.0642 -0.0624,-0.0706 -0.0968,-0.18936 -0.0651,-0.28006 -0.10443,-0.34276 -8.5e-4,-2.23484 0.10489,-0.34199 0.0651,-0.27796 0.0968,-0.18625 0.0624,-0.0668 v 0"
       id="path1942-3-6-5"
       sodipodi:nodetypes="cccccccccccccccccccccc" /><path
       inkscape:connector-curvature="0"
       style="fill:#c7c7c7;fill-opacity:1;stroke:#000000;stroke-width:0.06437846;stroke-miterlimit:4;stroke-dasharray:none;stroke-dashoffset:0;stroke-opacity:1;paint-order:markers stroke fill"
       d="m 737.90182,576.91174 36.68062,0.0643 0.3037,0.0707 0.24752,0.18946 0.16665,0.28018 0.0611,0.34293 8e-4,2.23592 -0.0609,0.34217 -0.16661,0.27809 -0.24741,0.18633 -0.30365,0.0669 -36.68138,-0.0643 -0.0588,-0.0707 -0.0912,-0.18945 -0.0614,-0.28019 -0.0985,-0.34293 -7.3e-4,-2.23592 0.0989,-0.34216 0.0614,-0.27809 0.0912,-0.18634 0.0588,-0.0669 v 0"
       id="path1942-3-3"
       sodipodi:nodetypes="cccccccccccccccccccccc" /><path
       inkscape:connector-curvature="0"
       style="fill:#c7c7c7;fill-opacity:1;stroke:#000000;stroke-width:0.06636255;stroke-miterlimit:4;stroke-dasharray:none;stroke-dashoffset:0;stroke-opacity:1;paint-order:markers stroke fill"
       d="m 780.16355,577.25693 -0.0643,38.99541 -0.0707,0.32287 -0.18937,0.26313 -0.28005,0.17717 -0.34276,0.065 -2.23484,8.4e-4 -0.342,-0.0648 -0.27795,-0.177 -0.18623,-0.26302 -0.0669,-0.3228 0.0643,-38.99622 0.0707,-0.0625 0.18937,-0.0969 0.28006,-0.0652 0.34276,-0.10472 2.23483,-7.7e-4 0.34199,0.10514 0.27795,0.0652 0.18625,0.097 0.0669,0.0625 v 0"
       id="path1942-5"
       sodipodi:nodetypes="cccccccccccccccccccccc" /><path
       sodipodi:nodetypes="cccccccccccccccccccccc"
       id="path1944-6"
       d="m 780.14323,618.08603 -0.0643,38.34705 -0.0707,0.31749 -0.18939,0.25876 -0.28009,0.17423 -0.34281,0.0639 -2.23513,8.4e-4 -0.34204,-0.0637 -0.27799,-0.17403 -0.18628,-0.25865 -0.0669,-0.31747 0.0643,-38.34783 0.0707,-0.0615 0.18938,-0.0953 0.28009,-0.0642 0.34281,-0.10297 2.23514,-8.4e-4 0.34205,0.10339 0.27799,0.0642 0.18626,0.0953 0.0669,0.0615 v 0"
       style="fill:#c7c7c7;fill-opacity:1;stroke:#000000;stroke-width:0.06581302;stroke-miterlimit:4;stroke-dasharray:none;stroke-dashoffset:0;stroke-opacity:1;paint-order:markers stroke fill"
       inkscape:connector-curvature="0" /><path
       inkscape:connector-curvature="0"
       style="fill:#c7c7c7;fill-opacity:1;stroke:#000000;stroke-width:0.06437846;stroke-miterlimit:4;stroke-dasharray:none;stroke-dashoffset:0;stroke-opacity:1;paint-order:markers stroke fill"
       d="m 737.90182,653.21182 36.68062,0.0643 0.3037,0.0707 0.24752,0.18946 0.16665,0.28018 0.0611,0.34293 7.9e-4,2.23592 -0.0609,0.34217 -0.16661,0.27809 -0.24741,0.18633 -0.30365,0.0669 -36.68137,-0.0643 -0.0588,-0.0707 -0.0912,-0.18945 -0.0614,-0.28019 -0.0985,-0.34293 -7.3e-4,-2.23592 0.0989,-0.34216 0.0614,-0.27809 0.0912,-0.18634 0.0588,-0.0669 v 0"
       id="path1942-3-3-6"
       sodipodi:nodetypes="cccccccccccccccccccccc" /><path
       id="rect1"
       style="fill:#c7c7c7;stroke-width:0.264583"
       d="m 697.81116,581.3429 h 34.79849 v 10.66405 h -34.79849 z" /><path
       id="rect1-3"
       style="fill:#c7c7c7;stroke-width:0.264584"
       d="m 697.71765,597.83611 h 34.79849 v 29.46646 h -34.79849 z" /></g></svg>
