<?xml version="1.0" encoding="UTF-8" standalone="no"?>
<!-- Generator: Gravit.io -->

<svg style="isolation:isolate" viewBox="0 0 352.85817 230.45867" width="352.85815pt" height="230.45866pt" version="1.1" id="svg13" sodipodi:docname="narrow_passage.svg" inkscape:export-filename="narrow_passage_new.svg" inkscape:export-xdpi="96" inkscape:export-ydpi="96" xmlns:inkscape="http://www.inkscape.org/namespaces/inkscape" xmlns:sodipodi="http://sodipodi.sourceforge.net/DTD/sodipodi-0.dtd" xmlns:xlink="http://www.w3.org/1999/xlink" xmlns="http://www.w3.org/2000/svg" xmlns:svg="http://www.w3.org/2000/svg" xmlns:gravitDesigner="http://ns.gravit.io/">
  <defs id="defs13" />
  <sodipodi:namedview id="namedview13" pagecolor="#505050" bordercolor="#eeeeee" borderopacity="1" inkscape:showpageshadow="0" inkscape:pageopacity="0" inkscape:pagecheckerboard="0" inkscape:deskcolor="#505050" inkscape:document-units="pt" showgrid="false" />
  <switch id="switch13">
    <g id="g13">
      <mask id="_mask_fxmzY0gCmylRFQ99T4z49Bx32KBDvGyZ" x="-200%" y="-200%" width="400%" height="400%">
        <rect x="-200%" y="-200%" width="400%" height="400%" style="fill:#ffffff" id="rect1" />
        <path d="m 11.647,2.3 -0.182,223.318 -0.2,1.849 -0.537,1.507 -0.794,1.015 -0.972,0.371 -6.335,0.005 L 1.658,229.994 0.87,228.98 0.342,227.474 0.152,225.626 0.335,2.302 0.535,1.944 1.072,1.389 1.866,1.015 l 0.971,-0.6 6.335,-0.004 0.97,0.602 0.788,0.374 0.528,0.555 0.189,0.358 v 0" id="path1942" fill="#000000" stroke="none" />
      </mask>
      <path d="m 11.647,2.3 -0.182,223.318 -0.2,1.849 -0.537,1.507 -0.794,1.015 -0.972,0.371 -6.335,0.005 L 1.658,229.994 0.87,228.98 0.342,227.474 0.152,225.626 0.335,2.302 0.535,1.944 1.072,1.389 1.866,1.015 l 0.971,-0.6 6.335,-0.004 0.97,0.602 0.788,0.374 0.528,0.555 0.189,0.358 v 0" id="path1" fill="#c7c7c7" />
      <path d="m 11.647,2.3 -0.182,223.318 -0.2,1.849 -0.537,1.507 -0.794,1.015 -0.972,0.371 -6.335,0.005 L 1.658,229.994 0.87,228.98 0.342,227.474 0.152,225.626 0.335,2.302 0.535,1.944 1.072,1.389 1.866,1.015 l 0.971,-0.6 6.335,-0.004 0.97,0.602 0.788,0.374 0.528,0.555 0.189,0.358 v 0" id="path2" fill="#c7c7c7" mask="url(#_mask_fxmzY0gCmylRFQ99T4z49Bx32KBDvGyZ)" vector-effect="non-scaling-stroke" stroke-width="0.375886" stroke="#000000" stroke-linejoin="miter" stroke-linecap="butt" stroke-miterlimit="4" />
      <mask id="_mask_rsjCt3V1wSD6Oy2pGdSFJwrcoGYjHGwU" x="-200%" y="-200%" width="400%" height="400%">
        <rect x="-200%" y="-200%" width="400%" height="400%" style="fill:#ffffff" id="rect2" />
        <path d="m 15.437,0.089 316.978,0.182 2.624,0.2 2.14,0.538 1.44,0.794 0.528,0.973 0.007,6.341 -0.526,0.97 -1.44,0.789 -2.138,0.528 -2.624,0.19 L 15.441,11.411 14.933,11.211 14.144,10.674 13.613,9.879 12.762,8.907 12.755,2.566 13.61,1.595 14.141,0.807 14.929,0.278 15.437,0.089 v 0" id="path1942-3" fill="#000000" stroke="none" />
      </mask>
      <path d="m 15.437,0.089 316.978,0.182 2.624,0.2 2.14,0.538 1.44,0.794 0.528,0.973 0.007,6.341 -0.526,0.97 -1.44,0.789 -2.138,0.528 -2.624,0.19 L 15.441,11.411 14.933,11.211 14.144,10.674 13.613,9.879 12.762,8.907 12.755,2.566 13.61,1.595 14.141,0.807 14.929,0.278 15.437,0.089 v 0" id="path3" fill="#c7c7c7" />
      <path d="m 15.437,0.089 316.978,0.182 2.624,0.2 2.14,0.538 1.44,0.794 0.528,0.973 0.007,6.341 -0.526,0.97 -1.44,0.789 -2.138,0.528 -2.624,0.19 L 15.441,11.411 14.933,11.211 14.144,10.674 13.613,9.879 12.762,8.907 12.755,2.566 13.61,1.595 14.141,0.807 14.929,0.278 15.437,0.089 v 0" id="path4" fill="#c7c7c7" mask="url(#_mask_rsjCt3V1wSD6Oy2pGdSFJwrcoGYjHGwU)" vector-effect="non-scaling-stroke" stroke-width="0.354066" stroke="#000000" stroke-linejoin="miter" stroke-linecap="butt" stroke-miterlimit="4" />
      <mask id="_mask_nD8UNQn4ihTpIGReO1w3nE192MEzq7zi" x="-200%" y="-200%" width="400%" height="400%">
        <rect x="-200%" y="-200%" width="400%" height="400%" style="fill:#ffffff" id="rect4" />
        <path d="m 15.428,218.859 316.059,0.183 2.617,0.2 2.133,0.538 1.436,0.794 0.527,0.973 0.007,6.341 -0.526,0.97 -1.435,0.789 -2.132,0.528 -2.616,0.19 -316.066,-0.182 -0.507,-0.201 -0.786,-0.537 -0.528,-0.795 -0.849,-0.972 -0.007,-6.341 0.853,-0.971 0.528,-0.788 0.787,-0.529 0.506,-0.19 v 0" id="path1942-3-7" fill="#000000" stroke="none" />
      </mask>
      <path d="m 15.428,218.859 316.059,0.183 2.617,0.2 2.133,0.538 1.436,0.794 0.527,0.973 0.007,6.341 -0.526,0.97 -1.435,0.789 -2.132,0.528 -2.616,0.19 -316.066,-0.182 -0.507,-0.201 -0.786,-0.537 -0.528,-0.795 -0.849,-0.972 -0.007,-6.341 0.853,-0.971 0.528,-0.788 0.787,-0.529 0.506,-0.19 v 0" id="path5" fill="#c7c7c7" />
      <path d="m 15.428,218.859 316.059,0.183 2.617,0.2 2.133,0.538 1.436,0.794 0.527,0.973 0.007,6.341 -0.526,0.97 -1.435,0.789 -2.132,0.528 -2.616,0.19 -316.066,-0.182 -0.507,-0.201 -0.786,-0.537 -0.528,-0.795 -0.849,-0.972 -0.007,-6.341 0.853,-0.971 0.528,-0.788 0.787,-0.529 0.506,-0.19 v 0" id="path6" fill="#c7c7c7" mask="url(#_mask_nD8UNQn4ihTpIGReO1w3nE192MEzq7zi)" vector-effect="non-scaling-stroke" stroke-width="0.354007" stroke="#000000" stroke-linejoin="miter" stroke-linecap="butt" stroke-miterlimit="4" />
      <mask id="_mask_klqs3yVQtGuYftPD40119SZSRGPnCBWs" x="-200%" y="-200%" width="400%" height="400%">
        <rect x="-200%" y="-200%" width="400%" height="400%" style="fill:#ffffff" id="rect6" />
        <path d="m 352.764,3.152 -0.182,222.483 -0.201,1.842 -0.536,1.501 -0.794,1.011 -0.972,0.371 -6.335,0.005 -0.969,-0.37 -0.788,-1.01 -0.528,-1.5 -0.19,-1.842 0.183,-222.488 0.2,-0.356 0.537,-0.553 0.794,-0.372 0.971,-0.598 6.335,-0.004 0.97,0.6 0.787,0.372 0.529,0.553 0.189,0.357 v 0" id="path1942-5" fill="#000000" stroke="none" />
      </mask>
      <path d="m 352.764,3.152 -0.182,222.483 -0.201,1.842 -0.536,1.501 -0.794,1.011 -0.972,0.371 -6.335,0.005 -0.969,-0.37 -0.788,-1.01 -0.528,-1.5 -0.19,-1.842 0.183,-222.488 0.2,-0.356 0.537,-0.553 0.794,-0.372 0.971,-0.598 6.335,-0.004 0.97,0.6 0.787,0.372 0.529,0.553 0.189,0.357 v 0" id="path7" fill="#c7c7c7" />
      <path d="m 352.764,3.152 -0.182,222.483 -0.201,1.842 -0.536,1.501 -0.794,1.011 -0.972,0.371 -6.335,0.005 -0.969,-0.37 -0.788,-1.01 -0.528,-1.5 -0.19,-1.842 0.183,-222.488 0.2,-0.356 0.537,-0.553 0.794,-0.372 0.971,-0.598 6.335,-0.004 0.97,0.6 0.787,0.372 0.529,0.553 0.189,0.357 v 0" id="path8" fill="#c7c7c7" mask="url(#_mask_klqs3yVQtGuYftPD40119SZSRGPnCBWs)" vector-effect="non-scaling-stroke" stroke-width="0.376229" stroke="#000000" stroke-linejoin="miter" stroke-linecap="butt" stroke-miterlimit="4" />
      <mask id="_mask_tBghkPOUlZgQGbb6IS8EwVgyFSbYnAzg" x="-200%" y="-200%" width="400%" height="400%">
        <rect x="-200%" y="-200%" width="400%" height="400%" style="fill:#ffffff" id="rect8" />
        <path d="m 181.235,56.172 -0.182,43.02 -0.2,0.356 -0.538,0.29 -0.795,0.196 -0.972,0.072 h -6.343 l -0.971,-0.071 -0.789,-0.195 -0.529,-0.29 -0.189,-0.357 0.182,-43.02 0.201,-0.069 0.537,-0.107 0.795,-0.072 0.973,-0.116 h 6.343 l 0.97,0.116 0.789,0.072 0.529,0.107 0.189,0.069 v 0" id="path2016" fill="#000000" stroke="none" />
      </mask>
      <path d="m 181.235,56.172 -0.182,43.02 -0.2,0.356 -0.538,0.29 -0.795,0.196 -0.972,0.072 h -6.343 l -0.971,-0.071 -0.789,-0.195 -0.529,-0.29 -0.189,-0.357 0.182,-43.02 0.201,-0.069 0.537,-0.107 0.795,-0.072 0.973,-0.116 h 6.343 l 0.97,0.116 0.789,0.072 0.529,0.107 0.189,0.069 v 0" id="path9" fill="#c7c7c7" />
      <path d="m 181.235,56.172 -0.182,43.02 -0.2,0.356 -0.538,0.29 -0.795,0.196 -0.972,0.072 h -6.343 l -0.971,-0.071 -0.789,-0.195 -0.529,-0.29 -0.189,-0.357 0.182,-43.02 0.201,-0.069 0.537,-0.107 0.795,-0.072 0.973,-0.116 h 6.343 l 0.97,0.116 0.789,0.072 0.529,0.107 0.189,0.069 v 0" id="path10" fill="#c7c7c7" mask="url(#_mask_tBghkPOUlZgQGbb6IS8EwVgyFSbYnAzg)" vector-effect="non-scaling-stroke" stroke-width="0.347259" stroke="#000000" stroke-linejoin="miter" stroke-linecap="butt" stroke-miterlimit="4" />
      <mask id="_mask_iBhMHdT8Op2aMUbc0UXAqHen0OBeWZ5r" x="-200%" y="-200%" width="400%" height="400%">
        <rect x="-200%" y="-200%" width="400%" height="400%" style="fill:#ffffff" id="rect10" />
        <path d="m 181.235,115.752 -0.182,43.019 -0.2,0.356 -0.538,0.291 -0.795,0.195 -0.972,0.072 -6.343,0.001 -0.971,-0.072 -0.789,-0.195 -0.529,-0.29 -0.189,-0.356 0.182,-43.021 0.201,-0.069 0.537,-0.107 0.795,-0.072 0.973,-0.115 6.343,-10e-4 0.97,0.116 0.789,0.072 0.529,0.107 0.189,0.069 v 0" id="path11" fill="#000000" stroke="none" />
      </mask>
      <path d="m 181.235,115.752 -0.182,43.019 -0.2,0.356 -0.538,0.291 -0.795,0.195 -0.972,0.072 -6.343,0.001 -0.971,-0.072 -0.789,-0.195 -0.529,-0.29 -0.189,-0.356 0.182,-43.021 0.201,-0.069 0.537,-0.107 0.795,-0.072 0.973,-0.115 6.343,-10e-4 0.97,0.116 0.789,0.072 0.529,0.107 0.189,0.069 v 0" id="path12" fill="#c7c7c7" />
      <path d="m 181.235,115.752 -0.182,43.019 -0.2,0.356 -0.538,0.291 -0.795,0.195 -0.972,0.072 -6.343,0.001 -0.971,-0.072 -0.789,-0.195 -0.529,-0.29 -0.189,-0.356 0.182,-43.021 0.201,-0.069 0.537,-0.107 0.795,-0.072 0.973,-0.115 6.343,-10e-4 0.97,0.116 0.789,0.072 0.529,0.107 0.189,0.069 v 0" id="path13" fill="#c7c7c7" mask="url(#_mask_iBhMHdT8Op2aMUbc0UXAqHen0OBeWZ5r)" vector-effect="non-scaling-stroke" stroke-width="0.347259" stroke="#000000" stroke-linejoin="miter" stroke-linecap="butt" stroke-miterlimit="4" />
    </g>
  </switch>
</svg>
