<?xml version="1.0" encoding="UTF-8" standalone="no"?>
<!-- Created with Inkscape (http://www.inkscape.org/) -->

<svg
   width="260.51947mm"
   height="49.948879mm"
   viewBox="0 0 260.51947 49.94888"
   version="1.1"
   id="svg1"
   inkscape:version="1.3-dev (0a5c3d3503, 2022-05-07)"
   sodipodi:docname="simple_duncan_half.svg"
   xmlns:inkscape="http://www.inkscape.org/namespaces/inkscape"
   xmlns:sodipodi="http://sodipodi.sourceforge.net/DTD/sodipodi-0.dtd"
   xmlns="http://www.w3.org/2000/svg"
   xmlns:svg="http://www.w3.org/2000/svg">
  <sodipodi:namedview
     id="namedview1"
     pagecolor="#505050"
     bordercolor="#eeeeee"
     borderopacity="1"
     inkscape:showpageshadow="0"
     inkscape:pageopacity="0"
     inkscape:pagecheckerboard="0"
     inkscape:deskcolor="#505050"
     inkscape:document-units="mm"
     showgrid="false"
     inkscape:zoom="0.68964078"
     inkscape:cx="338.58206"
     inkscape:cy="137.75287"
     inkscape:window-width="1512"
     inkscape:window-height="916"
     inkscape:window-x="0"
     inkscape:window-y="38"
     inkscape:window-maximized="1"
     inkscape:current-layer="layer1" />
  <defs
     id="defs1" />
  <g
     inkscape:label="Layer 1"
     inkscape:groupmode="layer"
     id="layer1"
     transform="translate(110.57045,-57.750206)">
    <path
       id="rect1"
       style="display:inline;fill:#ffffff;stroke-width:0.0754379"
       d="m -110.55273,63.259766 c 0.008,0.554129 -0.20044,1.325693 0.62929,1.058593 71.872919,0 143.745836,0 215.61875,0 -0.0694,-0.493279 0.13638,-1.261633 -0.1,-1.58789 -72.049346,0 -144.098695,0 -216.14804,0 0,0.176432 0,0.352864 0,0.529297 z" />
    <path
       id="rect3"
       style="display:inline;fill:#ffffff;stroke-width:0.132292"
       d="m -99.492188,62.783203 c -0.811802,0.01712 -0.763592,0.981289 -0.718752,1.561719 0.0133,4.338432 -0.0264,8.679765 0.0195,13.016406 0.21708,0.891256 1.740613,0.615089 1.568363,-0.320703 -0.01714,-4.564217 0.03414,-9.1344 -0.02539,-13.694922 -0.07099,-0.375915 -0.473295,-0.616315 -0.84375,-0.5625 z" />
    <path
       id="rect4"
       style="display:inline;fill:#ffffff;stroke-width:0.0929046"
       d="m -99.527344,76.412109 c -0.643336,0.212758 -0.776666,1.089196 -0.168185,1.438144 1.033174,1.02138 2.018407,2.095645 3.080295,3.085294 0.769321,0.330632 1.550696,-0.874601 0.771582,-1.36106 -1.054323,-1.049007 -2.073018,-2.135909 -3.148536,-3.162378 -0.181394,-0.0106 -0.371513,-0.127408 -0.535156,0 z" />
    <path
       id="rect3-2"
       style="display:inline;fill:#ffffff;stroke-width:0.132292"
       d="m -99.416016,88.248047 c -0.884684,0.06034 -0.701154,1.115842 -0.701174,1.732422 0.0147,4.278134 -0.0292,8.560237 0.0215,12.835941 0.197267,0.8855 1.70835,0.64026 1.566403,-0.27969 -0.01965,-4.579646 0.03932,-9.166879 -0.0293,-13.741798 -0.0714,-0.379478 -0.486643,-0.602469 -0.857422,-0.546875 z" />
    <path
       id="rect4-3"
       style="display:inline;fill:#ffffff;stroke-width:0.0929046"
       d="m -96.498047,85.230469 c -1.192157,1.054957 -2.28757,2.259422 -3.40625,3.402343 -0.495233,0.747814 0.835016,1.657009 1.320179,0.816639 1.030297,-1.06978 2.114702,-2.092352 3.113415,-3.189685 0.267096,-0.572638 -0.474537,-1.315559 -1.027344,-1.029297 z" />
    <path
       id="rect5"
       style="display:inline;fill:#ffffff;stroke-width:0.132292"
       d="m -110.43359,82.816406 c 0.008,0.55413 -0.20044,1.325694 0.62929,1.058594 3.24662,0 6.49323,0 9.73985,0 -0.0694,-0.493279 0.136369,-1.261633 -0.1,-1.587891 -3.42305,0 -6.8461,0 -10.26914,0 0,0.176433 0,0.352865 0,0.529297 z" />
    <path
       id="rect6"
       style="display:inline;fill:#ffffff;stroke-width:0.131024"
       d="m -89.955078,62.810547 c -0.845296,0.02297 -0.656728,1.045663 -0.660156,1.616797 0.01311,5.495659 -0.02616,10.995801 0.01953,16.488672 0.168545,0.868723 1.789582,0.628836 1.568359,-0.314844 -0.01576,-5.787918 0.03143,-11.578717 -0.02344,-17.364844 -0.172908,-0.367232 -0.51708,-0.473797 -0.904297,-0.425781 z" />
    <path
       id="rect7"
       style="display:inline;fill:#ffffff;stroke-width:0.132292"
       d="m -93.433594,79.958984 c -0.906532,0.05708 -0.771272,1.74523 0.175782,1.580078 3.117171,-0.01698 6.244848,0.03393 9.355468,-0.02539 0.849048,-0.203557 0.582588,-1.77694 -0.342187,-1.5625 -3.062761,0.0053 -6.127536,-0.0105 -9.189063,0.0078 z" />
    <path
       id="rect6-8"
       style="display:inline;fill:#ffffff;stroke-width:0.131024"
       d="m -90.248047,85.152344 c -0.878249,0.136049 -0.521534,1.231757 -0.591797,1.854297 0.01176,5.412641 -0.02349,10.829346 0.01758,16.239449 -0.187503,0.49913 0.332867,0.41464 0.844039,0.61534 0.430432,0.0186 1.349813,0.63713 1.439677,0.23617 -0.148104,-0.44753 0.0934,-1.59218 -0.319656,-1.56407 -0.722753,0.56109 -0.267225,-0.79305 -0.393747,-1.20111 -0.02058,-5.248465 0.04094,-10.503051 -0.03033,-15.747739 -0.153685,-0.416343 -0.565349,-0.479447 -0.965766,-0.432337 z" />
    <path
       id="rect7-0"
       style="display:inline;fill:#ffffff;stroke-width:0.132292"
       d="m -93.189453,85.050781 c -0.902659,0.05938 -0.780733,1.735924 0.164453,1.582031 3.155198,-0.02523 6.317612,0.05016 9.468359,-0.03711 0.724619,-0.361455 0.436455,-1.76195 -0.467578,-1.550781 -3.054933,0.0039 -6.110997,-0.0078 -9.165234,0.0059 z" />
    <path
       id="rect6-1"
       style="display:inline;fill:#ffffff;stroke-width:0.131024"
       d="m -71.345703,62.748047 c -0.863232,0.0911 -0.57052,1.161019 -0.617188,1.755859 0.0091,5.438293 -0.01825,10.880655 0.01367,16.316406 0.133295,0.898336 1.799224,0.674514 1.574219,-0.285546 -0.01847,-5.790355 0.03679,-11.584894 -0.02734,-17.372657 -0.180633,-0.381035 -0.550188,-0.463615 -0.943359,-0.414062 z" />
    <path
       id="rect6-1-0"
       style="display:inline;fill:#ffffff;stroke-width:0.131024"
       d="m -80.519531,62.978516 c -0.867482,0.08443 -0.574862,1.16101 -0.621094,1.755859 0.01568,5.45237 -0.03132,10.910755 0.02344,16.359375 0.181105,0.857904 1.776513,0.605761 1.564454,-0.326562 -0.01575,-5.791181 0.03142,-11.58518 -0.02344,-17.37461 -0.186903,-0.382604 -0.544992,-0.460707 -0.94336,-0.414062 z" />
    <path
       id="rect7-4"
       style="display:inline;fill:#ffffff;stroke-width:0.132292"
       d="m -75.646484,79.892578 c -0.903522,0.02991 -0.812027,1.704116 0.121093,1.582031 3.158338,-0.01858 6.320727,0.03694 9.476563,-0.02734 0.697584,-0.31849 0.515592,-1.66731 -0.337891,-1.560547 -3.086421,0.0039 -6.174155,-0.0078 -9.259765,0.0059 z" />
    <path
       id="rect6-1-02"
       style="display:inline;fill:#ffffff;stroke-width:0.131024"
       d="m -52.386719,62.720703 c -0.833783,0.06893 -0.594553,1.081728 -0.61914,1.65586 0.01307,5.481987 -0.02611,10.968472 0.01953,16.447656 0.164905,0.868008 1.790498,0.62788 1.566406,-0.316797 -0.01847,-5.791008 0.03679,-11.586182 -0.02734,-17.37461 -0.180368,-0.380719 -0.547565,-0.458386 -0.939453,-0.412109 z" />
    <path
       id="rect6-1-02-5"
       style="display:inline;fill:#ffffff;stroke-width:0.131024"
       d="m -42.882812,63.099609 c -0.853233,0.104053 -0.556166,1.161973 -0.605469,1.753907 0.01568,5.453019 -0.03132,10.912069 0.02344,16.361328 0.182336,0.853654 1.784312,0.608649 1.564453,-0.330469 -0.01847,-5.791008 0.03679,-11.586182 -0.02734,-17.374609 -0.181946,-0.386574 -0.560159,-0.459978 -0.955078,-0.410157 z" />
    <path
       id="rect6-1-0-3"
       style="display:inline;fill:#ffffff;stroke-width:0.131024"
       d="m -61.921875,62.951172 c -0.838471,0.06591 -0.601721,1.082859 -0.625,1.659765 0.01958,5.491834 -0.03913,10.992725 0.0293,16.478907 0.210011,0.827862 1.76521,0.574904 1.558594,-0.342188 -0.01846,-5.79688 0.03678,-11.597825 -0.02734,-17.392187 -0.187972,-0.374072 -0.543903,-0.449905 -0.935547,-0.404297 z" />
    <path
       id="rect7-4-2"
       style="display:inline;fill:#ffffff;stroke-width:0.132292"
       d="m -57.097656,79.871094 c -0.886943,0.09055 -0.728995,1.741244 0.203515,1.576172 3.141968,-0.01738 6.28767,0.03447 9.427344,-0.02539 0.748913,-0.324226 0.494626,-1.734883 -0.396875,-1.5625 -3.077521,0.0079 -6.158699,-0.01575 -9.233984,0.01172 z" />
    <path
       id="rect7-4-6"
       style="display:inline;fill:#ffffff;stroke-width:0.132292"
       d="m -75.283203,85.056641 c -0.915462,0.04009 -0.796962,1.736869 0.154687,1.582031 3.15199,-0.02393 6.310821,0.04754 9.458594,-0.03516 0.735548,-0.352695 0.44629,-1.765427 -0.459766,-1.552735 -3.051012,0.004 -6.103236,-0.008 -9.153515,0.0059 z" />
    <path
       id="rect6-1-02-3"
       style="display:inline;fill:#ffffff;stroke-width:0.131024"
       d="m -52.025391,85.455078 c -0.867651,0.163835 -0.507354,1.241427 -0.580078,1.867969 0.01448,6.210694 -0.02886,12.426398 0.02148,18.633983 0.185702,0.89096 1.808048,0.60775 1.566406,-0.35234 -2.5e-5,-6.653856 3.4e-5,-13.309185 0,-19.962112 -0.33232,-0.01767 -0.609088,-0.314242 -1.007813,-0.1875 z" />
    <path
       id="rect6-1-0-3-6"
       style="display:inline;fill:#ffffff;stroke-width:0.131024"
       d="m -61.554688,85.224609 c -0.877319,0.156415 -0.521862,1.245816 -0.591796,1.875782 0.01438,6.570076 -0.02867,13.145139 0.02148,19.712109 0.189822,0.8985 1.8129,0.60445 1.566406,-0.3582 -0.0092,-6.88528 0.0183,-13.774773 -0.01367,-20.657425 -0.04262,-0.480879 -0.562864,-0.657397 -0.982422,-0.572266 z" />
    <path
       id="rect6-1-0-3-6-8"
       style="display:inline;fill:#ffffff;stroke-width:0.131024"
       d="m -75.326172,85.130859 c -0.879033,0.132658 -0.521096,1.230856 -0.591797,1.852344 0.01045,5.313155 -0.02089,10.629391 0.01563,15.940627 0.161065,0.8891 1.815007,0.64197 1.572266,-0.32305 -0.01833,-5.66282 0.03658,-11.333439 -0.02734,-16.991405 -0.07644,-0.441802 -0.588517,-0.535625 -0.96875,-0.478516 z" />
    <path
       id="rect7-4-2-9"
       style="display:inline;fill:#ffffff;stroke-width:0.132292"
       d="m -56.669922,85.347656 c -0.902011,0.05953 -0.779364,1.736384 0.166406,1.582032 3.142496,-0.02342 6.292258,0.04621 9.430352,-0.03359 0.775939,-0.306104 0.487223,-1.778644 -0.431524,-1.554305 -3.054933,0.0039 -6.110997,-0.0078 -9.165234,0.0059 z" />
    <path
       id="rect8"
       style="display:inline;fill:#ffffff;stroke-width:0.132292"
       d="m -42.685547,80.144531 c -0.89007,0.07975 -0.743635,1.732925 0.191797,1.578125 0.650658,-0.106733 1.687787,0.315436 1.993474,-0.471538 0.198574,-0.58146 -0.207774,-1.263291 -0.86574,-1.116352 -0.439201,0.0083 -0.88207,-0.01553 -1.319531,0.0098 z" />
    <path
       id="rect9"
       style="display:inline;fill:#ffffff;stroke-width:0.126405"
       d="m -36.154297,75.041016 c -2.009171,1.91856 -4.017875,3.83761 -6.027344,5.755859 0.395452,0.314083 0.782698,1.018452 1.183681,1.095032 2.114112,-2.017786 4.227635,-4.036191 6.34171,-6.054016 -0.39823,-0.311508 -0.786361,-1.016708 -1.189548,-1.091136 -0.102833,0.09809 -0.205666,0.196174 -0.308499,0.294261 z" />
    <path
       id="rect9-6"
       style="display:inline;fill:#ffffff;stroke-width:0.126405"
       d="m -11.173828,74.802734 c -0.377977,0.411903 -1.089539,0.829048 -0.292916,1.21555 1.9844284,1.894873 3.9682736,3.790356 5.9530721,5.684841 0.2971027,-0.408312 0.9857861,-0.823941 1.0448436,-1.227242 -2.1134214,-2.017177 -4.2261747,-4.035055 -6.3397657,-6.052055 -0.121745,0.126302 -0.243489,0.252604 -0.365234,0.378906 z" />
    <path
       id="rect13"
       style="display:inline;fill:#ffffff;stroke-width:0.132292"
       d="m -6.0722656,80.419922 c 0.0085,0.554129 -0.2004334,1.325694 0.6292969,1.058594 0.7199218,0 1.4398437,0 2.1597656,0 -0.069351,-0.493279 0.1363726,-1.261633 -0.1,-1.587891 -0.8963542,0 -1.7927084,0 -2.6890625,0 0,0.176432 0,0.352865 0,0.529297 z" />
    <path
       id="rect14"
       style="display:inline;fill:#ffffff;stroke-width:0.132292"
       d="m 0.93554688,79.613281 c 0.008501,0.55413 -0.20043338,1.325694 0.62929692,1.058594 2.4184895,0 4.8369791,0 7.2554687,0 -0.069351,-0.493279 0.1363726,-1.261633 -0.1,-1.587891 -2.5949219,0 -5.1898437,0 -7.78476562,0 0,0.176433 0,0.352865 0,0.529297 z" />
    <path
       id="rect17"
       style="display:inline;fill:#ffffff;stroke-width:0.132292"
       d="m 120.56641,58.296875 c 0,5.976563 0,11.953125 0,17.929687 0.49328,-0.06935 1.26163,0.136373 1.58789,-0.1 0,-6.119662 0,-12.239323 0,-18.358985 -0.49328,0.06935 -1.26164,-0.136372 -1.58789,0.1 0,0.143099 0,0.286198 0,0.429298 z" />
    <path
       id="rect18"
       style="display:inline;fill:#ffffff;stroke-width:0.132292"
       d="m 119.76953,75.697266 c 0.008,0.554129 -0.20043,1.325693 0.6293,1.058593 0.58906,0 1.17812,0 1.76719,0 -0.0694,-0.493279 0.13637,-1.261633 -0.1,-1.58789 -0.7655,0 -1.53099,0 -2.29649,0 0,0.176432 0,0.352864 0,0.529297 z" />
    <path
       id="rect19"
       style="display:inline;fill:#ffffff;stroke-width:0.132292"
       d="m 104.39258,64.050781 c 0.008,0.55413 -0.20044,1.325694 0.62929,1.058594 3.18998,0 6.37995,0 9.56993,0 -0.0694,-0.493279 0.13637,-1.261633 -0.1,-1.587891 -3.36641,0 -6.73282,0 -10.09922,0 0,0.176433 0,0.352865 0,0.529297 z" />
    <path
       id="rect20"
       style="display:inline;fill:#ffffff;stroke-width:0.132292"
       d="m 112.99219,64.107422 c 0,4.220052 0,8.440104 0,12.660156 0.49328,-0.06935 1.26163,0.136373 1.58789,-0.1 0,-4.363151 0,-8.726302 0,-13.089453 -0.49328,0.06935 -1.26163,-0.136373 -1.58789,0.1 0,0.143099 0,0.286198 0,0.429297 z" />
    <path
       id="rect21"
       style="display:inline;fill:#ffffff;stroke-width:0.132292"
       d="m 112.33789,75.640625 c 0.0203,0.561198 -0.22759,1.390608 0.6293,1.115234 0.48023,-0.127967 1.47636,0.259956 1.62461,-0.2 -0.14122,-0.440297 0.32459,-1.487612 -0.3,-1.444531 -0.65131,0 -1.30261,0 -1.95391,0 0,0.176432 0,0.352865 0,0.529297 z" />
    <path
       id="rect22"
       style="display:inline;fill:#ffffff;stroke-width:0.132292"
       d="m 112.05273,75.640625 c 0,1.970052 0,3.940104 0,5.910156 0.49328,-0.06935 1.26164,0.136373 1.5879,-0.1 -1e-5,-2.113151 -1e-5,-4.226302 -1e-5,-6.339453 -0.49327,0.06935 -1.26163,-0.136372 -1.58789,0.1 0,0.143099 0,0.286198 0,0.429297 z" />
    <path
       id="rect25-8"
       style="display:inline;fill:#ffffff;stroke-width:0.132292"
       d="m 142.11523,64.909543 c 0,3.710425 0,7.42085 0,11.131276 0.49328,-0.01556 1.26164,0.03059 1.58789,-0.02243 10e-6,-3.742525 0,-7.485049 0,-11.227574 -0.49327,0.01556 -1.26163,-0.03059 -1.58789,0.02243 0,0.0321 0,0.0642 0,0.0963 z" />
    <path
       id="rect10"
       style="display:inline;fill:#ffffff;stroke-width:0.132292"
       d="m -36.337891,75.445312 c 0.0085,0.55413 -0.200433,1.325694 0.629297,1.058594 6.822136,0 13.644271,0 20.466406,0 -0.06935,-0.493279 0.136373,-1.261633 -0.1,-1.58789 -6.998567,0 -13.997135,0 -20.995703,0 0,0.176432 0,0.352864 0,0.529296 z" />
    <path
       id="rect11"
       style="display:inline;fill:#ffffff;stroke-width:0.132292"
       d="m -14.388672,75.425781 c 0.0085,0.55413 -0.200433,1.325694 0.629297,1.058594 1.24401,0 2.488021,0 3.732031,0 -0.06935,-0.493279 0.1363729,-1.261633 -0.1,-1.587891 -1.420442,0 -2.840885,0 -4.261328,0 0,0.176433 0,0.352865 0,0.529297 z" />
    <path
       id="rect12"
       style="display:inline;fill:#ffffff;stroke-width:0.132292"
       d="m -11.609375,63.445312 c 0,4.33073 0,8.661459 0,12.992188 0.493279,-0.06935 1.261633,0.136373 1.587891,-0.1 0,-4.473828 0,-8.947656 0,-13.421484 -0.493279,0.06935 -1.261633,-0.136373 -1.587891,0.1 0,0.143099 0,0.286198 0,0.429296 z" />
    <path
       id="rect12-4"
       style="display:inline;fill:#ffffff;stroke-width:0.132292"
       d="m 3.9121094,63.517578 c 0,5.686849 0,11.373698 0,17.060547 0.493279,-0.06935 1.261633,0.136373 1.5878906,-0.1 0,-5.829948 0,-11.659896 0,-17.489844 -0.4932791,0.06935 -1.261633,-0.136372 -1.5878906,0.1 0,0.143099 0,0.286198 0,0.429297 z" />
    <path
       id="rect12-4-8"
       style="display:inline;fill:#ffffff;stroke-width:0.132292"
       d="m 13.375,63.515625 c 0,5.686849 0,11.373698 0,17.060547 0.493279,-0.06935 1.261633,0.136372 1.587891,-0.1 0,-5.829948 0,-11.659896 0,-17.489844 -0.493279,0.06935 -1.261633,-0.136372 -1.587891,0.1 0,0.143099 0,0.286198 0,0.429297 z" />
    <path
       id="rect14-9"
       style="display:inline;fill:#ffffff;stroke-width:0.132292"
       d="m 19.894531,80.515625 c 0.0085,0.55413 -0.200433,1.325694 0.629297,1.058594 2.41849,0 4.836979,0 7.255469,0 -0.06935,-0.493279 0.136372,-1.261633 -0.1,-1.587891 -2.594922,0 -5.189844,0 -7.784766,0 0,0.176432 0,0.352865 0,0.529297 z" />
    <path
       id="rect12-4-4"
       style="display:inline;fill:#ffffff;stroke-width:0.132292"
       d="m 22.832031,63.373047 c 0,5.996094 0,11.992187 0,17.988281 0.493279,-0.06935 1.261633,0.136373 1.587891,-0.1 0,-6.139193 0,-12.278385 0,-18.417578 -0.493279,0.06935 -1.261633,-0.136373 -1.587891,0.1 0,0.143099 0,0.286198 0,0.429297 z" />
    <path
       id="rect14-9-5"
       style="display:inline;fill:#ffffff;stroke-width:0.132292"
       d="m 76.837891,80.410156 c 0.0085,0.55413 -0.200434,1.325694 0.629296,1.058594 2.41849,0 4.83698,0 7.255469,0 -0.06935,-0.493279 0.136373,-1.261633 -0.1,-1.587891 -2.594922,0 -5.189844,0 -7.784765,0 0,0.176433 0,0.352865 0,0.529297 z" />
    <path
       id="rect14-9-5-7"
       style="display:inline;fill:#ffffff;stroke-width:0.132292"
       d="m 95.603516,80.423828 c 0.0085,0.55413 -0.200434,1.325694 0.629296,1.058594 3.975778,0 7.951558,0 11.927348,0 -0.0694,-0.493279 0.13637,-1.261633 -0.1,-1.587891 -4.15222,0 -8.304431,0 -12.456644,0 0,0.176433 0,0.352865 0,0.529297 z" />
    <path
       id="rect12-4-4-1"
       style="display:inline;fill:#ffffff;stroke-width:0.132292"
       d="m 79.773438,63.267578 c -10e-7,5.995443 0,11.990886 0,17.986328 0.493279,-0.06935 1.261633,0.136373 1.58789,-0.1 0,-6.138541 0,-12.277083 0,-18.415625 -0.493279,0.06935 -1.261633,-0.136372 -1.58789,0.1 0,0.143099 -10e-7,0.286198 0,0.429297 z" />
    <path
       id="rect12-4-8-7"
       style="display:inline;fill:#ffffff;stroke-width:0.132292"
       d="m 32.681641,63.410156 c 0,5.6875 0,11.375 0,17.0625 0.493279,-0.06935 1.261633,0.136373 1.58789,-0.1 0,-5.830599 0,-11.661198 0,-17.491797 -0.493279,0.06935 -1.261633,-0.136372 -1.58789,0.1 0,0.143099 0,0.286198 0,0.429297 z" />
    <path
       id="rect14-9-8"
       style="display:inline;fill:#ffffff;stroke-width:0.132292"
       d="m 37.992188,80.046875 c 0.0085,0.55413 -0.200434,1.325694 0.629296,1.058594 2.41849,0 4.83698,0 7.255469,0 -0.06935,-0.493279 0.136373,-1.261633 -0.1,-1.587891 -2.594922,0 -5.189844,0 -7.784765,0 0,0.176432 0,0.352865 0,0.529297 z" />
    <path
       id="rect12-4-4-9"
       style="display:inline;fill:#ffffff;stroke-width:0.132292"
       d="m 41.814453,63.347656 c 0,5.794271 0,11.588542 0,17.382813 0.493279,-0.06935 1.261633,0.136372 1.587891,-0.1 0,-5.93737 0,-11.87474 0,-17.81211 -0.493279,0.06935 -1.261633,-0.136372 -1.587891,0.1 0,0.143099 0,0.286198 0,0.429297 z" />
    <path
       id="rect12-4-8-7-4"
       style="display:inline;fill:#ffffff;stroke-width:0.132292"
       d="m 51.664062,63.384766 c 0,5.96875 10e-7,11.9375 0,17.90625 0.49328,-0.06935 1.261634,0.136372 1.587891,-0.1 0,-6.111849 0,-12.223698 0,-18.335547 -0.493279,0.06935 -1.261633,-0.136373 -1.58789,0.1 -10e-7,0.143099 -10e-7,0.286198 -10e-7,0.429297 z" />
    <path
       id="rect12-4-8-7-4-2"
       style="display:inline;fill:#ffffff;stroke-width:0.132292"
       d="m 89.570312,63.496094 c 0,5.96875 10e-7,11.9375 0,17.90625 0.49328,-0.06935 1.261634,0.136372 1.587891,-0.1 0,-6.111849 0,-12.223698 0,-18.335547 -0.493279,0.06935 -1.261633,-0.136373 -1.587891,0.1 0,0.143099 10e-7,0.286198 0,0.429297 z" />
    <path
       id="rect12-4-8-7-4-2-3"
       style="display:inline;fill:#ffffff;stroke-width:0.132292"
       d="m 104.14844,63.230469 c 0,5.96875 0,11.9375 0,17.90625 0.49328,-0.06935 1.26163,0.136372 1.58789,-0.1 0,-6.111849 0,-12.223698 0,-18.335547 -0.49328,0.06935 -1.26163,-0.136373 -1.58789,0.1 0,0.143099 0,0.286198 0,0.429297 z" />
    <path
       id="rect14-9-3"
       style="display:inline;fill:#ffffff;stroke-width:0.132292"
       d="m 58.208984,80.570312 c 0.0085,0.55413 -0.200433,1.325694 0.629297,1.058594 2.41849,0 4.836979,0 7.255469,0 -0.06935,-0.493279 0.136373,-1.261633 -0.1,-1.58789 -2.594922,0 -5.189844,0 -7.784766,0 0,0.176432 0,0.352864 0,0.529296 z" />
    <path
       id="rect12-4-4-95"
       style="display:inline;fill:#ffffff;stroke-width:0.132292"
       d="m 61.144531,63.427734 c 0,5.996094 0,11.992188 0,17.988282 0.493279,-0.06935 1.261633,0.136372 1.587891,-0.1 0,-6.139193 0,-12.278386 0,-18.417578 -0.493279,0.06935 -1.261633,-0.136373 -1.587891,0.1 0,0.143099 0,0.286198 0,0.429297 z" />
    <path
       id="rect12-4-8-7-1"
       style="display:inline;fill:#ffffff;stroke-width:0.132292"
       d="m 70.466797,63.730469 c 0,5.686849 0,11.373698 0,17.060547 0.493279,-0.06935 1.261633,0.136372 1.587891,-0.1 -10e-7,-5.829948 0,-11.659896 0,-17.489844 -0.49328,0.06935 -1.261634,-0.136373 -1.587891,0.1 0,0.143099 0,0.286198 0,0.429297 z" />
    <path
       id="rect14-0"
       style="display:inline;fill:#ffffff;stroke-width:0.132292"
       d="m -4.7324219,85.144531 c 0.0085,0.55413 -0.2004334,1.325694 0.6292969,1.058594 4.56627604,0 9.1325521,0 13.6988281,0 -0.069351,-0.493279 0.1363726,-1.261633 -0.1,-1.587891 -4.7427083,0 -9.48541664,0 -14.228125,0 0,0.176433 0,0.352865 0,0.529297 z" />
    <path
       id="rect14-0-1-4"
       style="display:inline;fill:#ffffff;stroke-width:0.132292"
       d="m -17.101562,85.369141 c 0.0085,0.554129 -0.200434,1.325693 0.629296,1.058593 2.936719,0 5.873438,0 8.8101566,0 -0.069351,-0.493279 0.1363726,-1.261633 -0.1,-1.58789 -3.1131506,0 -6.2263016,0 -9.3394526,0 0,0.176432 0,0.352864 0,0.529297 z" />
    <path
       id="rect14-0-1-4-8"
       style="display:inline;fill:#ffffff;stroke-width:0.132292"
       d="m -18.142578,101.04883 c 0,1.16146 0,2.32291 0,3.48437 0.493279,-0.0694 1.261633,0.13638 1.58789,-0.1 0,-1.30455 10e-7,-2.60911 0,-3.91367 -0.493279,0.0694 -1.261633,-0.13637 -1.58789,0.1 0,0.1431 0,0.2862 0,0.4293 z" />
    <path
       id="rect14-0-1-4-8-6"
       style="display:inline;fill:#ffffff;stroke-width:0.132292"
       d="m -18.888672,100.95508 c 0.0085,0.55413 -0.200433,1.32569 0.629297,1.05859 0.585807,0 1.171615,0 1.757422,0 -0.06935,-0.49328 0.136372,-1.26163 -0.1,-1.58789 -0.76224,0 -1.524479,0 -2.286719,0 0,0.17643 0,0.35287 0,0.5293 z" />
    <path
       id="rect14-0-1-4-8-3"
       style="display:inline;fill:#ffffff;stroke-width:0.132292"
       d="m -17.222656,81.800781 c 0,1.546875 0,3.09375 0,4.640625 0.493279,-0.06935 1.261633,0.136373 1.58789,-0.1 0,-1.689974 0,-3.379948 0,-5.069922 -0.493279,0.06935 -1.261633,-0.136372 -1.58789,0.1 0,0.143099 0,0.286198 0,0.429297 z" />
    <path
       id="rect14-0-1-4-8-6-7"
       style="display:inline;fill:#ffffff;stroke-width:0.132292"
       d="m -18.945312,84.046875 c 0.0085,0.55413 -0.200434,1.325694 0.629296,1.058594 0.891146,0 1.782292,0 2.673438,0 -0.06935,-0.493279 0.136372,-1.261633 -0.1,-1.587891 -1.067578,0 -2.135156,0 -3.202734,0 0,0.176432 -10e-7,0.352865 0,0.529297 z" />
    <path
       id="rect12-4-5"
       style="display:inline;fill:#ffffff;stroke-width:0.132292"
       d="m 8.1113281,85.117188 c 0,6.168619 0,12.337239 0,18.505862 0.4932791,-0.0694 1.2616331,0.13637 1.5878907,-0.1 0,-6.311722 0,-12.623441 0,-18.935159 -0.4932791,0.06935 -1.2616331,-0.136373 -1.5878907,0.1 0,0.143099 0,0.286198 0,0.429297 z" />
    <path
       id="rect12-4-5-4"
       style="display:inline;fill:#ffffff;stroke-width:0.132292"
       d="m -18.921875,84.435547 c 0,5.834635 0,11.669271 0,17.503903 0.493279,-0.0694 1.261633,0.13638 1.587891,-0.1 0,-5.977731 0,-11.955466 0,-17.9332 -0.493279,0.06935 -1.261633,-0.136373 -1.587891,0.1 0,0.143099 0,0.286198 0,0.429297 z" />
    <path
       id="rect14-0-1-4-5"
       style="display:inline;fill:#ffffff;stroke-width:0.132292"
       d="m -39.623047,85.279297 c 0.0085,0.554129 -0.200433,1.325694 0.629297,1.058594 2.93737,0 5.87474,0 8.812109,0 -0.06935,-0.493279 0.136373,-1.261633 -0.1,-1.587891 -3.113802,0 -6.227604,0 -9.341406,0 0,0.176432 0,0.352865 0,0.529297 z" />
    <path
       id="rect14-0-1-4-5-1"
       style="display:inline;fill:#ffffff;stroke-width:0.132292"
       d="m -31.701172,81.726562 c 0.0085,0.55413 -0.200433,1.325694 0.629297,1.058594 5.149609,0 10.299219,0 15.448828,0 -0.06935,-0.493279 0.136373,-1.261633 -0.1,-1.58789 -5.326042,0 -10.652083,0 -15.978125,0 0,0.176432 0,0.352864 0,0.529296 z" />
    <path
       id="rect14-0-1-4-8-3-1"
       style="display:inline;fill:#ffffff;stroke-width:0.132292"
       d="m -31.650391,81.708984 c 0,1.546875 0,3.09375 0,4.640625 0.493279,-0.06935 1.261633,0.136373 1.587891,-0.1 0,-1.689974 0,-3.379948 0,-5.069921 -0.493279,0.06935 -1.261633,-0.136373 -1.587891,0.1 0,0.143098 0,0.286197 0,0.429296 z" />
    <path
       id="rect14-0-1-4-8-6-7-5"
       style="display:inline;fill:#ffffff;stroke-width:0.132292"
       d="m -31.642578,83.957031 c 0.0085,0.55413 -0.200434,1.325694 0.629297,1.058594 0.891146,0 1.782291,0 2.673437,0 -0.06935,-0.493279 0.136373,-1.261633 -0.1,-1.587891 -1.067578,0 -2.135156,0 -3.202734,0 0,0.176433 0,0.352865 0,0.529297 z" />
    <path
       id="rect12-4-5-4-4"
       style="display:inline;fill:#ffffff;stroke-width:0.132292"
       d="m -29.949219,84.345703 c 0,6.892578 0,13.785156 0,20.677737 0.493279,-0.0694 1.261633,0.13637 1.587891,-0.1 0,-7.03568 0,-14.071357 0,-21.107034 -0.493279,0.06935 -1.261633,-0.136372 -1.587891,0.1 0,0.143099 0,0.286198 0,0.429297 z" />
    <path
       id="rect12-4-8-8"
       style="display:inline;fill:#ffffff;stroke-width:0.132292"
       d="m 13.347656,85.724609 c 0,5.686849 0,11.373698 0,17.060551 0.493279,-0.0694 1.261633,0.13637 1.587891,-0.1 0,-5.829952 0,-11.6599 0,-17.489848 -0.493279,0.06935 -1.261633,-0.136372 -1.587891,0.1 0,0.143099 0,0.286198 0,0.429297 z" />
    <path
       id="rect14-9-0"
       style="display:inline;fill:#ffffff;stroke-width:0.132292"
       d="m 19.865234,84.724609 c 0.0085,0.55413 -0.200433,1.325694 0.629297,1.058594 2.41849,0 4.836979,0 7.255469,0 -0.06935,-0.493279 0.136373,-1.261633 -0.1,-1.587891 -2.594922,10e-7 -5.189844,0 -7.784766,0 0,0.176433 0,0.352865 0,0.529297 z" />
    <path
       id="rect12-4-4-3"
       style="display:inline;fill:#ffffff;stroke-width:0.132292"
       d="m 22.802734,84.939453 c 0,5.996094 0,11.992188 0,17.988277 0.493279,-0.0694 1.261633,0.13638 1.587891,-0.1 0,-6.139188 0,-12.278381 0,-18.417574 -0.493279,0.06935 -1.261633,-0.136372 -1.587891,0.1 0,0.143099 0,0.286198 0,0.429297 z" />
    <path
       id="rect14-9-5-2"
       style="display:inline;fill:#ffffff;stroke-width:0.132292"
       d="m 76.808594,84.832031 c 0.0085,0.55413 -0.200434,1.325694 0.629297,1.058594 2.418489,0 4.836979,0 7.255468,0 -0.06935,-0.493279 0.136373,-1.261633 -0.1,-1.587891 -2.594922,0 -5.189843,0 -7.784765,0 0,0.176433 0,0.352865 0,0.529297 z" />
    <path
       id="rect14-9-5-7-3"
       style="display:inline;fill:#ffffff;stroke-width:0.132291"
       d="m 94.166016,84.978516 c 0.0085,0.554129 -0.200434,1.325693 0.629297,1.058593 6.083207,0 12.166407,0 18.249607,0 -0.0694,-0.493279 0.13637,-1.261633 -0.1,-1.58789 -6.25963,0 -12.51927,0 -18.778904,0 0,0.176432 0,0.352864 0,0.529297 z" />
    <path
       id="rect12-4-4-1-3"
       style="display:inline;fill:#ffffff;stroke-width:0.132292"
       d="m 79.746094,85.046875 c 0,5.995443 0,11.990885 0,17.986325 0.493279,-0.0694 1.261633,0.13638 1.58789,-0.1 0,-6.138539 0,-12.27708 0,-18.415622 -0.493279,0.06935 -1.261633,-0.136372 -1.58789,0.1 0,0.143099 0,0.286198 0,0.429297 z" />
    <path
       id="rect12-4-8-7-2"
       style="display:inline;fill:#ffffff;stroke-width:0.132292"
       d="m 32.652344,85.828125 c 0,5.686849 0,11.373698 0,17.060545 0.493279,-0.0694 1.261633,0.13637 1.58789,-0.1 0,-5.829946 0,-11.659894 0,-17.489842 -0.493279,0.06935 -1.261633,-0.136372 -1.58789,0.1 0,0.143099 0,0.286198 0,0.429297 z" />
    <path
       id="rect14-9-8-1"
       style="display:inline;fill:#ffffff;stroke-width:0.132292"
       d="m 37.962891,85.193359 c 0.0085,0.55413 -0.200434,1.325694 0.629297,1.058594 2.418489,0 4.836979,0 7.255468,0 -0.06935,-0.493279 0.136373,-1.261633 -0.1,-1.587891 -2.594922,0 -5.189844,0 -7.784765,0 0,0.176433 0,0.352865 0,0.529297 z" />
    <path
       id="rect12-4-4-9-9"
       style="display:inline;fill:#ffffff;stroke-width:0.132292"
       d="m 41.785156,85.570312 c 0,5.794271 0,11.588542 0,17.382808 0.493279,-0.0694 1.261633,0.13638 1.587891,-0.1 0,-5.937375 0,-11.874745 0,-17.812114 -0.493279,0.06935 -1.261633,-0.136373 -1.587891,0.1 0,0.143099 0,0.286198 0,0.429296 z" />
    <path
       id="rect12-4-8-7-4-1"
       style="display:inline;fill:#ffffff;stroke-width:0.132292"
       d="m 51.636719,85.007812 c 0,5.969402 0,11.938803 0,17.908208 0.492646,-0.0693 1.260227,0.13626 1.585937,-0.1 0,-6.112504 0,-12.225004 0,-18.337504 -0.492646,0.06933 -1.260227,-0.136269 -1.585937,0.1 0,0.143099 0,0.286198 0,0.429296 z" />
    <path
       id="rect12-4-8-7-4-2-6"
       style="display:inline;fill:#ffffff;stroke-width:0.132292"
       d="m 89.541016,86.025391 c 0,5.593099 0,11.186198 0,16.779299 0.493279,-0.0694 1.261633,0.13637 1.58789,-0.1 0,-5.7362 0,-11.472398 0,-17.208596 -0.493279,0.06935 -1.261633,-0.136373 -1.58789,0.1 0,0.143099 0,0.286198 0,0.429297 z" />
    <path
       id="rect12-4-8-7-4-2-6-1"
       style="display:inline;fill:#ffffff;stroke-width:0.132292"
       d="m 114.82031,85.484375 c 0,5.928385 0,11.856771 0,17.785155 0.49328,-0.0694 1.26164,0.13637 1.58789,-0.1 0,-6.071483 0,-12.142968 0,-18.214452 -0.49328,0.06935 -1.26163,-0.136372 -1.58789,0.1 0,0.143099 0,0.286198 0,0.429297 z" />
    <path
       id="rect12-4-8-7-4-2-6-1-2"
       style="display:inline;fill:#ffffff;stroke-width:0.132293"
       d="m 121.74219,81.765625 c 0,7.664062 0,15.328125 0,22.992185 0.49328,-0.0694 1.26163,0.13638 1.58789,-0.1 0,-7.807159 0,-15.61432 0,-23.421482 -0.49328,0.06935 -1.26163,-0.136372 -1.58789,0.1 0,0.143099 0,0.286198 0,0.429297 z" />
    <path
       id="rect12-4-8-7-4-2-3-3"
       style="display:inline;fill:#ffffff;stroke-width:0.132292"
       d="m 104.11914,85.164062 c 0,5.968751 0,11.9375 0,17.906248 0.49328,-0.0694 1.26163,0.13638 1.58789,-0.1 0,-6.111846 0,-12.223695 0,-18.335544 -0.49328,0.06935 -1.26163,-0.136373 -1.58789,0.1 0,0.143099 0,0.286198 0,0.429296 z" />
    <path
       id="rect14-9-3-9"
       style="display:inline;fill:#ffffff;stroke-width:0.132292"
       d="m 58.179688,84.669922 c 0.0085,0.554129 -0.200434,1.325694 0.629296,1.058594 2.41849,0 4.83698,0 7.255469,0 -0.06935,-0.493279 0.136373,-1.261633 -0.1,-1.587891 -2.594922,0 -5.189844,0 -7.784765,0 0,0.176432 -10e-7,0.352865 0,0.529297 z" />
    <path
       id="rect12-4-4-95-1"
       style="display:inline;fill:#ffffff;stroke-width:0.132292"
       d="m 61.117188,84.884766 c -10e-7,5.995442 0,11.990885 0,17.986324 0.492645,-0.0693 1.260226,0.13627 1.585937,-0.1 0,-6.138538 0,-12.27708 0,-18.415621 -0.492646,0.06933 -1.260227,-0.136269 -1.585937,0.1 -10e-7,0.143099 0,0.286198 0,0.429297 z" />
    <path
       id="rect12-4-8-7-1-7"
       style="display:inline;fill:#ffffff;stroke-width:0.132292"
       d="m 70.638672,85.871094 c 0,5.686849 0,11.373698 0,17.060546 0.493279,-0.0694 1.261633,0.13637 1.58789,-0.1 0,-5.829947 0,-11.659895 0,-17.489843 -0.493279,0.06935 -1.261633,-0.136373 -1.58789,0.1 0,0.143099 0,0.286198 0,0.429297 z" />
    <path
       id="rect14-9-5-6-3-4"
       style="display:inline;fill:#ffffff;stroke-width:0.132292"
       d="m 125.37109,58.416016 c 0,4.255208 0,8.510416 0,12.765625 0.49328,-0.06935 1.26164,0.136372 1.58789,-0.1 0,-4.398308 0,-8.796615 0,-13.194922 -0.49327,0.06935 -1.26163,-0.136373 -1.58789,0.1 0,0.143099 0,0.286198 0,0.429297 z" />
    <path
       id="rect12-4-4-1-7-5-9"
       style="display:inline;fill:#ffffff;stroke-width:0.132291"
       d="m 125.91992,63.984375 c 0.008,0.55413 -0.20043,1.325694 0.6293,1.058594 7.79414,0 15.58828,0 23.38242,0 -0.0693,-0.493279 0.13637,-1.261633 -0.1,-1.587891 -7.97057,0 -15.94115,0 -23.91172,0 0,0.176432 0,0.352865 0,0.529297 z" />
    <path
       id="rect12-4-4-1-7-5-9-0"
       style="display:inline;fill:#ffffff;stroke-width:0.132292"
       d="m 125.91992,75.070312 c 0.008,0.55413 -0.20043,1.325694 0.6293,1.058594 5.68737,0 11.37474,0 17.06211,0 -0.0694,-0.493279 0.13637,-1.261633 -0.1,-1.58789 -5.8638,0 -11.72761,0 -17.59141,0 0,0.176432 0,0.352864 0,0.529296 z" />
    <path
       id="rect12-4-4-1-7-5-9-0-50"
       style="display:inline;fill:#ffffff;stroke-width:0.132292"
       d="m 121.75586,81.701172 c 0.008,0.554129 -0.20043,1.325694 0.6293,1.058594 7.675,0 15.35,0 23.025,0 -0.0693,-0.493279 0.13637,-1.261633 -0.1,-1.587891 -7.85144,0 -15.70287,0 -23.5543,0 0,0.176432 0,0.352865 0,0.529297 z" />
    <path
       id="rect12-4-4-1-7-5-9-0-50-6"
       style="display:inline;fill:#ffffff;stroke-width:0.132292"
       d="m 121.76172,103.70703 c 0.008,0.55413 -0.20043,1.3257 0.6293,1.05859 1.35403,1e-5 2.70807,0 4.0621,0 -0.0694,-0.49327 0.13638,-1.26163 -0.1,-1.58789 -1.53047,0 -3.06094,0 -4.59141,0 0,0.17644 0,0.35287 0,0.5293 z" />
    <path
       id="rect15"
       style="display:inline;fill:#ffffff;stroke-width:0.132292"
       d="m 112.05273,80.537109 c 0.009,0.55413 -0.20043,1.325694 0.6293,1.058594 1.2349,0 2.46979,0 3.70469,0 -0.0694,-0.493279 0.13637,-1.261633 -0.1,-1.58789 -1.41133,0 -2.82266,-10e-7 -4.23399,-10e-7 0,0.176433 0,0.352865 0,0.529297 z" />
    <path
       id="rect16"
       style="display:inline;fill:#ffffff;stroke-width:0.132292"
       d="m 119.91211,75.302734 c -1.73834,1.785756 -3.47622,3.57195 -5.21484,5.357422 0.4015,0.294308 0.80808,0.977673 1.2065,1.035794 1.8384,-1.887906 3.67574,-3.776847 5.5142,-5.6647 -0.4015,-0.294308 -0.80808,-0.977673 -1.2065,-1.035794 -0.0998,0.102426 -0.19957,0.204852 -0.29936,0.307278 z" />
    <path
       id="rect14-0-4"
       style="display:inline;fill:#ffffff;stroke-width:0.132292"
       d="m 13.410156,102.25781 c 0.0085,0.55413 -0.200433,1.3257 0.629297,1.0586 34.085807,0 68.171615,0 102.257427,0 -0.0694,-0.49328 0.13637,-1.26164 -0.1,-1.58789 -34.262245,0 -68.524484,0 -102.786724,0 0,0.17643 0,0.35286 0,0.52929 z" />
    <path
       id="rect12-4-5-5"
       style="display:inline;fill:#ffffff;stroke-width:0.132292"
       d="m -80.957031,85.451172 c 0,6.122396 0,12.244792 0,18.367188 0.493279,-0.0694 1.261633,0.13637 1.58789,-0.1 0,-6.265495 0,-12.53099 0,-18.796485 -0.493279,0.06935 -1.261633,-0.136373 -1.58789,0.1 0,0.143099 0,0.286198 0,0.429297 z" />
    <path
       id="rect14-0-1-2-6"
       style="display:inline;fill:#ffffff;stroke-width:0.132292"
       d="m -110.52734,102.78125 c 0.008,0.55413 -0.20044,1.32569 0.62929,1.05859 10.171097,0 20.342191,0 30.513284,0 -0.06935,-0.49328 0.136373,-1.26163 -0.1,-1.58789 -10.347526,0 -20.695054,0 -31.042574,0 0,0.17644 0,0.35287 0,0.5293 z" />
    <path
       id="rect14-0-1-4-8-37"
       style="display:inline;fill:#ffffff;stroke-width:0.132292"
       d="m -32.09375,103.9375 c 0,0.91927 0,1.83854 0,2.75781 0.493279,-0.0694 1.261633,0.13638 1.587891,-0.1 0,-1.06237 0,-2.12474 0,-3.18711 -0.493279,0.0694 -1.261633,-0.13637 -1.587891,0.1 0,0.1431 0,0.2862 0,0.4293 z" />
    <path
       id="rect14-0-1-4-8-6-6"
       style="display:inline;fill:#ffffff;stroke-width:0.132292"
       d="m -32.019531,103.9375 c 0.0085,0.55413 -0.200434,1.32569 0.629297,1.05859 1.010286,0 2.020573,0 3.030859,0 -0.06935,-0.49328 0.136373,-1.26163 -0.1,-1.58789 -1.186719,0 -2.373438,0 -3.560156,0 0,0.17644 0,0.35287 0,0.5293 z" />
    <path
       id="rect14-0-1-2-4"
       style="display:inline;fill:#ffffff;stroke-width:0.132292"
       d="m -53.474609,105.62891 c 0.0085,0.55413 -0.200434,1.32569 0.629297,1.05859 7.435416,0 14.870833,0 22.30625,0 -0.06935,-0.49328 0.136372,-1.26163 -0.100001,-1.58789 -7.611848,0 -15.223697,0 -22.835546,0 0,0.17643 0,0.35286 0,0.5293 z" />
    <path
       id="rect14-0-1-4-8-37-7"
       style="display:inline;fill:#ffffff;stroke-width:0.132292"
       d="m -53.484375,105.65234 c 0,0.66602 0,1.33204 0,1.99805 0.493279,-0.0694 1.261633,0.13637 1.587891,-0.1 0,-0.80911 0,-1.61823 0,-2.42734 -0.493279,0.0694 -1.261633,-0.13638 -1.587891,0.1 0,0.1431 0,0.28619 0,0.42929 z" />
    <path
       id="rect14-0-1-2-4-8"
       style="display:inline;fill:#ffffff;stroke-width:0.132292"
       d="m -73.6875,106.58594 c 0.0085,0.55413 -0.200433,1.32569 0.629297,1.05859 7.050651,0 14.101302,0 21.151953,0 -0.06935,-0.49328 0.136373,-1.26163 -0.1,-1.58789 -7.227083,0 -14.454167,0 -21.68125,0 0,0.17643 0,0.35287 0,0.5293 z" />
    <path
       id="rect14-0-1-4-8-6-6-4"
       style="display:inline;fill:#ffffff;stroke-width:0.132292"
       d="m -74.580078,104.12305 c 0.0085,0.55413 -0.200434,1.32569 0.629297,1.05859 0.592317,0 1.184635,0 1.776953,0 -0.06935,-0.49328 0.136372,-1.26163 -0.1,-1.58789 -0.76875,0 -1.5375,0 -2.30625,0 0,0.17643 0,0.35286 0,0.5293 z" />
    <path
       id="rect14-0-1-4-8-37-9-6"
       style="display:inline;fill:#ffffff;stroke-width:0.132292"
       d="m -75.042969,102.32227 c 0,0.9414 0,1.88281 0,2.82421 0.493279,-0.0694 1.261633,0.13638 1.587891,-0.1 0,-1.0845 0,-2.16901 0,-3.25351 -0.493279,0.0694 -1.261633,-0.13637 -1.587891,0.1 0,0.1431 0,0.2862 0,0.4293 z" />
    <path
       id="rect14-0-1-4-8-6-6-4-6"
       style="display:inline;fill:#ffffff;stroke-width:0.132292"
       d="m -75.933594,102.32422 c 0.0085,0.55413 -0.200433,1.32569 0.629297,1.05859 0.592318,0 1.184636,0 1.776953,0 -0.06935,-0.49328 0.136373,-1.26163 -0.1,-1.58789 -0.76875,0 -1.5375,0 -2.30625,0 0,0.17643 0,0.35287 0,0.5293 z" />
    <path
       id="rect14-0-1-4-8-37-2-5-0"
       style="display:inline;fill:#ffffff;stroke-width:0.132292"
       d="m -16.654297,103.54297 c 0,0.72591 0,1.45182 0,2.17773 0.493279,-0.0694 1.261633,0.13638 1.587891,-0.1 0,-0.86901 0,-1.73802 0,-2.60703 -0.493279,0.0694 -1.261633,-0.13637 -1.587891,0.1 0,0.1431 0,0.2862 0,0.4293 z" />
    <path
       id="rect14-0-1-4-8-6-6-3-3-4"
       style="display:inline;fill:#ffffff;stroke-width:0.132292"
       d="m -18.054688,103.54492 c 0.0085,0.55413 -0.200433,1.3257 0.629297,1.0586 0.761589,0 1.523177,0 2.284766,0 -0.06935,-0.49328 0.136373,-1.26164 -0.1,-1.58789 -0.938021,0 -1.876042,-1e-5 -2.814063,-1e-5 0,0.17644 10e-7,0.35287 0,0.5293 z" />
    <path
       id="rect14-0-1-4-8-37-2-5-9-4"
       style="display:inline;fill:#ffffff;stroke-width:0.132292"
       d="m -12.923828,103.70312 c 0,0.70378 0,1.40756 0,2.11133 0.493279,-0.0694 1.261633,0.13638 1.58789,-0.1 1e-6,-0.84687 0,-1.69375 0,-2.54062 -0.493279,0.0694 -1.261633,-0.13637 -1.58789,0.1 0,0.1431 0,0.2862 0,0.42929 z" />
    <path
       id="rect14-0-1-4-8-6-6-3-3-6-3"
       style="display:inline;fill:#ffffff;stroke-width:0.132292"
       d="m -12.851562,103.70312 c 0.0085,0.55413 -0.200434,1.3257 0.629296,1.0586 0.673698,0 1.347396,0 2.021094,0 -0.06935,-0.49328 0.136373,-1.26163 -0.1,-1.58789 -0.85013,0 -1.70026,0 -2.55039,0 0,0.17643 0,0.35286 0,0.52929 z" />
    <path
       id="rect14-0-1-2-4-8-1-3-3"
       style="display:inline;fill:#ffffff;stroke-width:0.132292"
       d="m -16.669922,104.75781 c 0.0085,0.55413 -0.200433,1.3257 0.629297,1.0586 1.536979,0 3.073958,0 4.610937,0 -0.06935,-0.49328 0.136373,-1.26164 -0.1,-1.58789 -1.713411,0 -3.426822,0 -5.140234,0 0,0.17643 0,0.35286 0,0.52929 z" />
    <path
       id="rect14-0-1-2-4-8-1-3-3-3"
       style="display:inline;fill:#ffffff;stroke-width:0.132292"
       d="m -11.810547,102.53125 c 0.0085,0.55413 -0.200433,1.32569 0.629297,1.05859 6.9139323,0 13.8278646,0 20.7417969,0 -0.069351,-0.49328 0.1363726,-1.26163 -0.1,-1.58789 -7.0903646,0 -14.1807292,0 -21.2710939,0 0,0.17644 0,0.35287 0,0.5293 z" />
    <path
       id="rect12-4-5-4-4-5-6-3-2"
       style="display:inline;fill:#ffffff;stroke-width:0.132292"
       d="m -11.767578,102.57617 c 0,0.72136 0,1.44271 0,2.16406 0.493279,-0.0694 1.261633,0.13638 1.58789,-0.1 0,-0.86445 1e-6,-1.7289 0,-2.59335 -0.493279,0.0694 -1.261633,-0.13638 -1.58789,0.1 0,0.14309 0,0.28619 0,0.42929 z" />
    <path
       id="rect6-1-02-3-3"
       style="display:inline;fill:#ffffff;stroke-width:0.131024"
       d="m -109.92383,62.685547 c -0.87039,0.17144 -0.56781,1.286446 -0.61914,1.922265 0.0104,12.719695 -0.0209,25.441203 0.0156,38.159768 0.0574,0.99163 1.70754,0.82304 1.57226,-0.16797 -0.0104,-13.086359 0.0209,-26.174551 -0.0156,-39.259766 -0.0388,-0.483583 -0.49599,-0.75446 -0.95313,-0.654297 z" />
  </g>
</svg>
