<?xml version="1.0" encoding="UTF-8" standalone="no"?>
<!-- Created with Inkscape (http://www.inkscape.org/) -->

<svg
   width="124.4805mm"
   height="81.300705mm"
   viewBox="0 0 124.4805 81.300705"
   version="1.1"
   id="svg8"
   inkscape:version="1.3-dev (0a5c3d3503, 2022-05-07)"
   sodipodi:docname="warehouse2.svg"
   inkscape:export-filename="warehouse2_export.svg"
   inkscape:export-xdpi="96"
   inkscape:export-ydpi="96"
   xmlns:inkscape="http://www.inkscape.org/namespaces/inkscape"
   xmlns:sodipodi="http://sodipodi.sourceforge.net/DTD/sodipodi-0.dtd"
   xmlns="http://www.w3.org/2000/svg"
   xmlns:svg="http://www.w3.org/2000/svg"
   xmlns:rdf="http://www.w3.org/1999/02/22-rdf-syntax-ns#"
   xmlns:cc="http://creativecommons.org/ns#"
   xmlns:dc="http://purl.org/dc/elements/1.1/">
  <sodipodi:namedview
     id="base"
     pagecolor="#ffffff"
     bordercolor="#666666"
     borderopacity="1.0"
     inkscape:pageopacity="0.0"
     inkscape:pageshadow="2"
     inkscape:zoom="1.979899"
     inkscape:cx="240.66884"
     inkscape:cy="144.45181"
     inkscape:document-units="mm"
     inkscape:current-layer="layer1"
     showgrid="false"
     inkscape:window-width="1512"
     inkscape:window-height="916"
     inkscape:window-x="0"
     inkscape:window-y="38"
     inkscape:window-maximized="1"
     fit-margin-top="0"
     fit-margin-left="0"
     fit-margin-right="0"
     fit-margin-bottom="0"
     inkscape:snap-nodes="false"
     inkscape:snap-global="false"
     inkscape:showpageshadow="0"
     inkscape:pagecheckerboard="0"
     inkscape:deskcolor="#d1d1d1" />
  <defs
     id="defs2" />
  <metadata
     id="metadata5">
    <rdf:RDF>
      <cc:Work
         rdf:about="">
        <dc:format>image/svg+xml</dc:format>
        <dc:type
           rdf:resource="http://purl.org/dc/dcmitype/StillImage" />
        <dc:title />
      </cc:Work>
    </rdf:RDF>
  </metadata>
  <g
     transform="translate(-655.71622,-576.47863)"
     inkscape:label="Layer 1"
     inkscape:groupmode="layer"
     id="layer1">
    <path
       inkscape:connector-curvature="0"
       style="fill:#c7c7c7;fill-opacity:1;stroke:#000000;stroke-width:0.0663022;stroke-miterlimit:4;stroke-dasharray:none;stroke-dashoffset:0;stroke-opacity:1;paint-order:markers stroke fill"
       d="m 659.82514,576.9528 -0.0643,38.9239 -0.0707,0.32227 -0.18937,0.26266 -0.28005,0.17684 -0.34276,0.0648 -2.23487,7.3e-4 -0.34201,-0.0646 -0.27796,-0.17667 -0.18624,-0.26254 -0.0669,-0.32222 0.0643,-38.92471 0.0707,-0.0624 0.18936,-0.0968 0.28006,-0.0652 0.34277,-0.10452 2.23486,-7.7e-4 0.342,0.10494 0.27796,0.0652 0.18625,0.0968 0.0669,0.0624 v 0"
       id="path1942"
       sodipodi:nodetypes="cccccccccccccccccccccc" />
    <path
       sodipodi:nodetypes="cccccccccccccccccccccc"
       id="path1944"
       d="m 659.80454,617.99499 -0.0643,38.9239 -0.0707,0.32226 -0.18936,0.26266 -0.28006,0.17685 -0.34277,0.0648 -2.23486,7.2e-4 -0.342,-0.0646 -0.27796,-0.17666 -0.18625,-0.26254 -0.0669,-0.32223 0.0643,-38.92469 0.0707,-0.0624 0.18936,-0.0968 0.28006,-0.0652 0.34276,-0.10453 2.23487,-7.6e-4 0.34201,0.10495 0.27796,0.0652 0.18624,0.0968 0.0669,0.0624 v 0"
       style="fill:#c7c7c7;fill-opacity:1;stroke:#000000;stroke-width:0.0663022;stroke-miterlimit:4;stroke-dasharray:none;stroke-dashoffset:0;stroke-opacity:1;paint-order:markers stroke fill"
       inkscape:connector-curvature="0" />
    <path
       sodipodi:nodetypes="cccccccccccccccccccccc"
       id="path2016"
       d="m 736.78097,577.02313 -0.0643,33.17964 -0.0707,0.2747 -0.18961,0.2239 -0.28039,0.15075 -0.34321,0.0553 -2.23763,6e-4 -0.34243,-0.0551 -0.27831,-0.1506 -0.18648,-0.2238 -0.0669,-0.27468 0.0643,-33.18031 0.0707,-0.0532 0.18961,-0.0825 0.28039,-0.0555 0.34321,-0.0891 2.23763,-6.5e-4 0.34243,0.0895 0.27831,0.0555 0.18648,0.0825 0.0669,0.0532 v 0"
       style="fill:#c7c7c7;fill-opacity:1;stroke:#000000;stroke-width:0.0612527;stroke-miterlimit:4;stroke-dasharray:none;stroke-dashoffset:0;stroke-opacity:1;paint-order:markers stroke fill"
       inkscape:connector-curvature="0" />
    <path
       inkscape:connector-curvature="0"
       style="fill:#c7c7c7;fill-opacity:1;stroke:#000000;stroke-width:0.0643785;stroke-miterlimit:4;stroke-dasharray:none;stroke-dashoffset:0;stroke-opacity:1;paint-order:markers stroke fill"
       d="m 736.75881,620.13508 -0.0643,36.68058 -0.0707,0.30369 -0.18945,0.24752 -0.28019,0.16666 -0.34293,0.0611 -2.23592,6.8e-4 -0.34216,-0.0609 -0.27809,-0.16648 -0.18634,-0.24741 -0.0669,-0.30366 0.0643,-36.68133 0.0707,-0.0588 0.18945,-0.0912 0.28019,-0.0614 0.34293,-0.0985 2.23592,-7.2e-4 0.34216,0.0989 0.27809,0.0614 0.18634,0.0912 0.0669,0.0588 v 0"
       id="path2018"
       sodipodi:nodetypes="cccccccccccccccccccccc" />
    <path
       inkscape:connector-curvature="0"
       style="fill:#c7c7c7;fill-opacity:1;stroke:#000000;stroke-width:0.0624532;stroke-miterlimit:4;stroke-dasharray:none;stroke-dashoffset:0;stroke-opacity:1;paint-order:markers stroke fill"
       d="m 660.50793,576.50986 34.50367,0.0643 0.28567,0.0707 0.23283,0.18954 0.15676,0.28031 0.0575,0.34309 7.5e-4,2.23695 -0.0573,0.34233 -0.15672,0.27822 -0.23273,0.18642 -0.28563,0.0669 -34.50437,-0.0643 -0.0553,-0.0707 -0.0858,-0.18953 -0.0578,-0.28032 -0.0927,-0.34309 -6.9e-4,-2.23695 0.093,-0.34232 0.0578,-0.27822 0.0858,-0.18642 0.0553,-0.0669 v 0"
       id="path1942-3"
       sodipodi:nodetypes="cccccccccccccccccccccc" />
    <path
       inkscape:connector-curvature="0"
       style="fill:#c7c7c7;fill-opacity:1;stroke:#000000;stroke-width:0.0627809;stroke-miterlimit:4;stroke-dasharray:none;stroke-dashoffset:0;stroke-opacity:1;paint-order:markers stroke fill"
       d="m 696.58814,576.63836 34.86958,0.0643 0.28871,0.0707 0.23529,0.18952 0.15843,0.28029 0.0581,0.34306 7.6e-4,2.23676 -0.0579,0.34231 -0.15839,0.27819 -0.23519,0.1864 -0.28866,0.0669 -34.87031,-0.0643 -0.0559,-0.0707 -0.0867,-0.18951 -0.0583,-0.2803 -0.0936,-0.34306 -6.9e-4,-2.23676 0.094,-0.3423 0.0583,-0.27819 0.0867,-0.18642 0.0559,-0.0669 v 0"
       id="path1942-3-6"
       sodipodi:nodetypes="cccccccccccccccccccccc" />
    <path
       inkscape:connector-curvature="0"
       style="fill:#c7c7c7;fill-opacity:1;stroke:#000000;stroke-width:0.0624429;stroke-miterlimit:4;stroke-dasharray:none;stroke-dashoffset:0;stroke-opacity:1;paint-order:markers stroke fill"
       d="m 660.84191,653.28035 34.4922,0.0643 0.28558,0.0707 0.23275,0.18955 0.15671,0.28031 0.0575,0.34309 7.5e-4,2.23695 -0.0573,0.34233 -0.15667,0.27822 -0.23265,0.18642 -0.28553,0.0669 -34.49292,-0.0643 -0.0553,-0.0707 -0.0858,-0.18954 -0.0577,-0.28032 -0.0926,-0.34309 -6.9e-4,-2.23695 0.093,-0.34232 0.0577,-0.27822 0.0858,-0.18643 0.0553,-0.0669 v 0"
       id="path1942-3-7"
       sodipodi:nodetypes="cccccccccccccccccccccc" />
    <path
       inkscape:connector-curvature="0"
       style="fill:#c7c7c7;fill-opacity:1;stroke:#000000;stroke-width:0.0624429;stroke-miterlimit:4;stroke-dasharray:none;stroke-dashoffset:0;stroke-opacity:1;paint-order:markers stroke fill"
       d="m 696.90687,653.40868 34.49221,0.0643 0.28558,0.0707 0.23275,0.18955 0.15671,0.28031 0.0575,0.34309 7.5e-4,2.23695 -0.0573,0.34233 -0.15667,0.27822 -0.23265,0.18642 -0.28553,0.0669 -34.49292,-0.0643 -0.0553,-0.0707 -0.0858,-0.18954 -0.0577,-0.28032 -0.0926,-0.34309 -7.5e-4,-2.23695 0.093,-0.34232 0.0577,-0.27822 0.0858,-0.18643 0.0553,-0.0669 v 0"
       id="path1942-3-6-5"
       sodipodi:nodetypes="cccccccccccccccccccccc" />
    <path
       inkscape:connector-curvature="0"
       style="fill:#c7c7c7;fill-opacity:1;stroke:#000000;stroke-width:0.0643785;stroke-miterlimit:4;stroke-dasharray:none;stroke-dashoffset:0;stroke-opacity:1;paint-order:markers stroke fill"
       d="m 737.90182,576.91174 36.68062,0.0643 0.3037,0.0707 0.24752,0.18946 0.16665,0.28018 0.0611,0.34293 8e-4,2.23592 -0.0609,0.34217 -0.16661,0.27809 -0.24741,0.18633 -0.30365,0.0669 -36.68138,-0.0643 -0.0588,-0.0707 -0.0912,-0.18945 -0.0614,-0.28019 -0.0985,-0.34293 -7.3e-4,-2.23592 0.0989,-0.34216 0.0614,-0.27809 0.0912,-0.18634 0.0588,-0.0669 v 0"
       id="path1942-3-3"
       sodipodi:nodetypes="cccccccccccccccccccccc" />
    <path
       inkscape:connector-curvature="0"
       style="fill:#c7c7c7;fill-opacity:1;stroke:#000000;stroke-width:0.0663626;stroke-miterlimit:4;stroke-dasharray:none;stroke-dashoffset:0;stroke-opacity:1;paint-order:markers stroke fill"
       d="m 780.16355,577.25693 -0.0643,38.99541 -0.0707,0.32287 -0.18937,0.26313 -0.28005,0.17717 -0.34276,0.065 -2.23484,8.4e-4 -0.342,-0.0648 -0.27795,-0.177 -0.18623,-0.26302 -0.0669,-0.3228 0.0643,-38.99622 0.0707,-0.0625 0.18937,-0.0969 0.28006,-0.0652 0.34276,-0.10472 2.23483,-7.7e-4 0.34199,0.10514 0.27795,0.0652 0.18625,0.097 0.0669,0.0625 v 0"
       id="path1942-5"
       sodipodi:nodetypes="cccccccccccccccccccccc" />
    <path
       sodipodi:nodetypes="cccccccccccccccccccccc"
       id="path1944-6"
       d="m 780.14323,618.08603 -0.0643,38.34705 -0.0707,0.31749 -0.18939,0.25876 -0.28009,0.17423 -0.34281,0.0639 -2.23513,8.4e-4 -0.34204,-0.0637 -0.27799,-0.17403 -0.18628,-0.25865 -0.0669,-0.31747 0.0643,-38.34783 0.0707,-0.0615 0.18938,-0.0953 0.28009,-0.0642 0.34281,-0.10297 2.23514,-8.4e-4 0.34205,0.10339 0.27799,0.0642 0.18626,0.0953 0.0669,0.0615 v 0"
       style="fill:#c7c7c7;fill-opacity:1;stroke:#000000;stroke-width:0.065813;stroke-miterlimit:4;stroke-dasharray:none;stroke-dashoffset:0;stroke-opacity:1;paint-order:markers stroke fill"
       inkscape:connector-curvature="0" />
    <path
       inkscape:connector-curvature="0"
       style="fill:#c7c7c7;fill-opacity:1;stroke:#000000;stroke-width:0.0643785;stroke-miterlimit:4;stroke-dasharray:none;stroke-dashoffset:0;stroke-opacity:1;paint-order:markers stroke fill"
       d="m 737.90182,653.21182 36.68062,0.0643 0.3037,0.0707 0.24752,0.18946 0.16665,0.28018 0.0611,0.34293 7.9e-4,2.23592 -0.0609,0.34217 -0.16661,0.27809 -0.24741,0.18633 -0.30365,0.0669 -36.68137,-0.0643 -0.0588,-0.0707 -0.0912,-0.18945 -0.0614,-0.28019 -0.0985,-0.34293 -7.3e-4,-2.23592 0.0989,-0.34216 0.0614,-0.27809 0.0912,-0.18634 0.0588,-0.0669 v 0"
       id="path1942-3-3-6"
       sodipodi:nodetypes="cccccccccccccccccccccc" />
  </g>
</svg>
